{"glyphs":{"0":{"ha":819,"x_min":51,"x_max":768,"o":"m 51 476 q 242 917 51 800 q 408 958 310 958 q 686 808 592 958 q 768 476 768 678 q 686 146 768 276 q 408 -6 593 -6 q 131 146 225 -6 q 51 476 51 274 m 243 476 q 267 272 243 338 q 323 174 290 207 q 409 140 356 140 q 495 174 463 140 q 546 257 528 207 q 576 476 576 342 q 552 678 576 611 q 495 779 528 746 q 409 813 463 813 q 323 779 356 813 q 272 696 290 746 q 243 476 243 615 z "},"1":{"ha":507,"x_min":28,"x_max":485,"o":"m 482 53 l 481 1 l 51 1 l 47 115 l 185 136 l 185 771 l 56 747 l 28 868 l 346 964 l 367 951 l 367 129 l 485 111 q 483 86 485 103 l 482 53 z "},"2":{"ha":747,"x_min":19,"x_max":708,"o":"m 74 0 l 53 113 q 110 176 72 136 q 194 265 149 215 q 287 370 239 314 q 372 483 335 426 q 461 684 461 613 q 427 783 461 756 q 353 811 393 811 q 258 797 289 811 l 197 653 l 19 743 q 257 940 103 892 q 363 957 310 957 q 467 942 417 957 q 558 897 518 928 q 653 694 653 825 q 418 279 653 522 q 341 202 376 236 q 283 146 306 168 l 543 146 l 600 299 l 708 299 l 678 0 l 74 0 z "},"3":{"ha":725,"x_min":24,"x_max":672,"o":"m 24 743 q 367 958 142 958 q 558 896 479 958 q 653 701 653 822 q 611 563 653 624 q 497 485 567 499 q 603 438 568 469 q 672 279 672 374 q 567 64 672 144 q 351 -6 475 -6 q 147 31 240 -6 q 35 101 79 57 l 133 244 q 229 171 178 203 q 337 139 281 139 q 419 156 393 139 q 460 194 446 172 q 481 255 481 226 q 474 308 481 283 q 446 353 467 332 q 281 403 396 403 l 188 403 l 188 549 l 253 549 q 460 694 460 549 q 418 786 460 754 q 350 813 383 813 q 256 803 281 813 l 192 653 l 24 743 z "},"4":{"ha":749,"x_min":-7,"x_max":699,"o":"m 694 86 q 699 0 694 13 l 211 0 l 211 115 l 410 136 l 410 260 l 46 260 l -7 382 l 386 960 l 590 960 l 590 406 l 699 406 l 699 260 l 590 260 l 590 131 l 694 113 l 694 86 m 410 406 l 410 763 l 163 406 l 410 406 z "},"5":{"ha":718,"x_min":15,"x_max":671,"o":"m 240 517 q 103 493 179 517 l 103 914 l 144 960 l 649 960 l 649 813 l 285 813 l 285 653 q 360 656 310 656 q 472 633 410 656 q 578 569 533 611 q 671 333 671 482 q 567 83 671 175 q 306 -6 467 -6 q 15 101 122 -6 l 99 238 q 231 147 153 172 q 294 139 258 139 q 364 153 329 139 q 425 192 399 167 q 479 329 479 247 q 411 469 479 418 q 240 517 347 517 z "},"6":{"ha":769,"x_min":50,"x_max":725,"o":"m 157 821 q 281 922 208 885 q 428 960 353 960 q 551 944 504 961 q 629 906 597 928 q 713 817 676 871 l 553 714 l 485 808 q 429 815 460 815 q 367 798 399 815 q 308 744 336 781 q 239 525 246 661 q 325 582 271 561 q 434 603 379 603 q 540 585 489 603 q 631 533 590 568 q 725 308 725 451 q 639 81 725 168 q 408 -6 556 -6 q 128 147 221 -6 q 50 486 50 276 q 157 821 50 688 m 263 288 q 406 140 304 140 q 505 186 475 140 q 535 285 535 232 q 522 366 535 338 q 490 414 510 394 q 398 454 451 454 q 303 414 344 454 q 263 288 263 374 z "},"7":{"ha":632,"x_min":33,"x_max":636,"o":"m 179 788 l 150 631 l 33 631 l 33 960 l 611 960 l 636 924 l 349 0 l 160 0 l 144 28 l 450 788 l 179 788 z "},"8":{"ha":757,"x_min":46,"x_max":711,"o":"m 207 522 q 96 724 96 601 q 190 911 96 844 q 383 967 269 967 q 575 913 496 967 q 667 733 667 849 q 628 612 667 664 q 533 519 589 560 q 651 433 622 469 q 711 281 711 360 q 683 150 711 201 q 608 64 656 99 q 375 -7 513 -7 q 144 58 236 -7 q 46 256 46 131 q 88 413 46 343 q 207 522 131 482 m 349 444 q 268 367 299 411 q 238 275 238 322 q 256 201 238 228 q 297 161 274 174 q 369 139 338 139 q 424 146 400 139 q 469 169 449 153 q 519 275 519 207 q 414 411 519 357 q 349 444 382 428 m 392 589 q 493 739 493 667 q 466 814 493 781 q 383 847 439 847 q 299 816 328 847 q 271 735 271 785 q 306 651 271 686 q 392 589 340 617 z "},"9":{"ha":754,"x_min":38,"x_max":703,"o":"m 510 401 q 351 346 447 346 q 139 419 217 346 q 54 636 54 497 q 133 864 54 776 q 376 960 218 960 q 628 814 540 960 q 703 469 703 686 q 606 133 703 267 q 325 -6 501 -6 q 83 67 192 -6 q 38 101 54 85 l 136 232 q 338 140 229 144 q 497 294 464 144 q 510 401 507 343 m 364 492 q 447 518 404 492 q 508 593 489 544 q 429 797 499 751 q 367 814 403 814 q 307 798 331 814 q 269 758 283 782 q 243 648 243 714 q 272 537 243 582 q 364 492 301 492 z "}," ":{"ha":333,"x_min":0,"x_max":0,"o":""},"!":{"ha":383,"x_min":81,"x_max":310,"o":"m 135 343 l 81 938 l 281 957 l 310 904 l 243 343 l 135 343 m 97 88 q 125 153 97 126 q 191 179 153 179 q 256 153 229 179 q 283 88 283 126 q 256 22 283 49 q 191 -6 229 -6 q 125 22 153 -6 q 97 88 97 49 z "},"\"":{"ha":515,"x_min":39,"x_max":471,"o":"m 39 957 l 210 971 l 233 929 l 193 614 l 89 614 l 39 957 m 276 957 l 447 971 l 471 929 l 431 614 l 326 614 l 276 957 z "},"#":{"ha":938,"x_min":40,"x_max":892,"o":"m 493 711 l 601 711 l 674 931 l 826 931 l 844 911 l 779 711 l 883 711 q 892 700 892 711 l 892 565 l 731 565 l 676 400 l 825 400 q 833 388 833 400 l 833 254 l 629 254 l 568 67 l 419 67 l 397 85 l 453 254 l 339 254 l 276 67 l 128 67 l 106 85 l 163 254 l 65 254 l 40 353 l 65 400 l 211 400 l 267 565 l 108 565 l 83 665 l 108 711 l 317 711 l 390 931 l 542 931 l 561 911 l 493 711 m 389 400 l 500 400 l 554 565 l 444 565 l 389 400 z "},"$":{"ha":710,"x_min":46,"x_max":668,"o":"m 297 -214 l 297 -3 q 65 58 193 6 l 46 322 l 167 322 l 210 160 q 336 140 268 140 q 441 172 404 140 q 478 265 478 204 q 372 383 478 336 q 301 415 343 397 q 210 457 258 432 q 128 515 163 482 q 51 699 51 586 q 124 874 51 804 q 297 956 192 939 l 297 1121 l 435 1121 l 435 961 q 628 918 540 953 l 649 658 l 532 658 l 469 801 q 372 817 429 817 q 278 792 315 817 q 242 713 242 767 q 297 626 242 661 q 364 592 325 610 q 450 551 403 575 q 608 437 549 501 q 668 282 668 372 q 600 89 668 163 q 435 3 540 24 l 435 -214 l 297 -214 z "},"%":{"ha":1143,"x_min":39,"x_max":1104,"o":"m 876 372 q 858 372 876 372 q 824 337 840 372 q 807 249 807 301 q 824 161 807 197 q 876 125 840 125 q 928 161 911 125 q 946 249 946 197 q 928 337 946 301 q 876 372 911 372 m 646 250 q 711 430 646 357 q 876 503 776 503 q 1039 436 978 503 q 1104 250 1104 365 q 1039 68 1104 143 q 876 -6 976 -6 q 711 68 776 -6 q 646 250 646 142 m 353 0 l 181 0 l 167 18 l 783 960 l 956 960 l 969 940 l 353 0 m 269 840 q 251 840 269 840 q 217 805 233 840 q 200 717 200 769 q 217 629 200 665 q 269 593 233 593 q 322 629 304 593 q 339 717 339 665 q 322 805 339 769 q 269 840 304 840 m 39 718 q 104 898 39 825 q 269 971 169 971 q 433 903 371 971 q 497 718 497 833 q 433 536 497 611 q 269 463 369 463 q 104 536 169 463 q 39 718 39 610 z "},"&":{"ha":986,"x_min":39,"x_max":997,"o":"m 610 815 q 447 525 610 667 q 480 486 464 506 q 517 444 496 467 q 621 333 576 378 q 654 436 643 381 l 589 436 l 560 554 l 825 554 l 846 532 q 743 229 824 371 l 738 218 q 831 138 808 150 l 892 206 l 997 72 q 939 22 978 46 q 824 -3 900 -3 q 619 74 696 -3 q 381 -6 521 -6 q 144 64 238 -6 q 39 295 39 144 q 200 556 39 446 q 122 771 122 669 q 253 997 122 936 q 383 1021 304 1021 q 551 964 492 1021 q 610 815 610 907 m 289 444 q 221 292 221 376 q 267 181 221 226 q 383 133 314 133 q 510 181 451 133 q 350 368 422 271 l 289 444 m 350 654 q 439 806 439 736 q 419 860 439 839 q 365 882 400 882 q 309 858 329 882 q 289 803 289 835 q 350 654 289 746 z "},"'":{"ha":282,"x_min":42,"x_max":236,"o":"m 42 915 l 213 929 l 236 888 l 196 572 l 92 572 l 42 915 z "},"(":{"ha":431,"x_min":65,"x_max":392,"o":"m 254 404 q 392 -225 254 107 l 217 -225 q 65 403 65 92 q 119 794 65 603 q 217 1031 157 924 l 392 1031 q 267 610 303 863 q 254 404 254 514 z "},")":{"ha":432,"x_min":39,"x_max":367,"o":"m 367 403 q 214 -225 367 94 l 39 -225 q 176 404 176 107 q 131 785 176 599 q 39 1031 97 922 l 214 1031 q 306 817 276 919 q 367 403 367 603 z "},"*":{"ha":510,"x_min":38,"x_max":471,"o":"m 286 844 l 401 943 l 471 882 l 457 836 l 313 789 l 464 739 l 443 650 l 399 638 l 286 733 l 315 585 l 228 556 l 196 589 l 224 732 l 111 633 l 38 696 l 53 740 l 190 786 l 49 836 l 67 929 l 113 940 l 224 843 l 194 993 l 283 1022 l 315 989 l 286 844 m 247 776 l 263 778 l 268 788 l 261 800 l 249 799 l 242 786 l 247 776 z "},"+":{"ha":599,"x_min":40,"x_max":556,"o":"m 358 775 l 358 556 l 556 556 l 556 436 l 358 436 l 358 196 l 256 196 l 238 206 l 238 436 l 40 436 l 40 538 l 50 556 l 238 556 l 238 775 l 358 775 z "},",":{"ha":325,"x_min":22,"x_max":258,"o":"m 247 185 q 258 80 258 140 q 247 -25 258 19 q 219 -108 236 -69 q 143 -240 189 -181 l 26 -186 l 22 -171 l 93 -15 l 57 158 l 247 185 z "},"-":{"ha":588,"x_min":74,"x_max":513,"o":"m 74 347 l 74 461 l 99 478 l 504 478 q 513 468 513 478 l 513 347 l 74 347 z "},".":{"ha":293,"x_min":53,"x_max":239,"o":"m 53 88 q 81 153 53 126 q 147 179 108 179 q 212 153 185 179 q 239 88 239 126 q 212 22 239 49 q 147 -6 185 -6 q 81 22 108 -6 q 53 88 53 49 z "},"/":{"ha":675,"x_min":28,"x_max":647,"o":"m 206 0 l 32 0 l 28 18 l 469 960 l 647 960 l 646 940 l 206 0 z "},":":{"ha":335,"x_min":75,"x_max":261,"o":"m 75 268 q 103 333 75 307 q 169 360 131 360 q 234 333 207 360 q 261 268 261 307 q 234 202 261 229 q 169 175 207 175 q 103 202 131 175 q 75 268 75 229 m 169 539 q 150 539 169 539 q 103 567 131 539 q 75 633 75 594 q 103 698 75 671 q 169 725 131 725 q 234 698 207 725 q 261 633 261 671 q 234 567 261 594 q 169 539 207 539 z "},";":{"ha":344,"x_min":33,"x_max":269,"o":"m 258 185 q 269 80 269 140 q 258 -25 269 19 q 231 -108 247 -69 q 154 -240 200 -181 l 38 -186 l 33 -171 l 104 -15 l 68 158 l 258 185 m 174 317 q 155 317 174 317 q 108 344 136 317 q 81 410 81 372 q 108 476 81 449 q 174 503 136 503 q 240 476 213 503 q 267 410 267 449 q 240 344 267 372 q 174 317 213 317 z "},"<":{"ha":576,"x_min":40,"x_max":494,"o":"m 494 654 l 181 471 l 494 286 l 494 104 l 40 388 l 40 556 l 494 838 l 494 654 z "},"=":{"ha":643,"x_min":75,"x_max":568,"o":"m 75 422 l 568 422 l 568 285 l 75 285 l 75 422 m 75 639 l 568 639 l 568 500 l 75 500 l 75 639 z "},">":{"ha":576,"x_min":82,"x_max":536,"o":"m 82 838 l 536 556 l 536 388 l 82 104 l 82 286 l 396 471 l 82 654 l 82 838 z "},"?":{"ha":596,"x_min":44,"x_max":557,"o":"m 314 343 l 315 328 l 178 326 q 164 411 164 361 q 179 492 164 461 q 217 549 194 524 q 265 597 239 575 q 314 639 292 618 q 367 740 367 690 q 339 810 367 789 q 282 832 311 832 q 192 821 221 832 l 157 688 l 44 688 l 67 931 q 308 975 196 975 q 489 917 421 975 q 557 765 557 860 q 436 517 557 617 q 337 419 360 454 q 314 343 314 383 m 154 88 q 181 153 154 126 q 247 179 208 179 q 313 153 286 179 q 339 88 339 126 q 313 22 339 49 q 247 -6 286 -6 q 181 22 208 -6 q 154 88 154 49 z "},"@":{"ha":1221,"x_min":44,"x_max":1181,"o":"m 761 183 q 606 140 703 140 q 424 203 501 140 q 326 428 326 283 q 443 672 326 590 q 627 731 528 731 q 799 694 726 731 l 836 707 l 882 692 l 882 339 q 894 292 882 300 q 921 285 907 285 q 950 298 935 285 q 979 339 965 311 q 1013 497 1013 406 q 986 649 1013 588 q 910 756 960 711 q 624 850 803 850 q 338 744 454 850 q 213 444 213 629 q 336 139 213 253 q 639 32 451 32 q 814 61 750 32 l 846 56 l 796 -106 q 612 -128 724 -128 q 397 -90 500 -128 q 215 20 293 -53 q 91 200 138 93 q 44 447 44 307 q 96 692 44 586 q 231 869 147 797 q 422 976 315 940 q 640 1013 529 1013 q 850 976 751 1013 q 1022 874 949 940 q 1138 717 1096 808 q 1181 529 1181 625 q 1158 365 1181 433 q 1097 246 1136 296 q 896 139 1017 139 q 761 183 806 139 m 638 258 q 715 285 678 258 q 714 303 714 294 l 714 600 q 644 614 683 614 q 537 569 575 614 q 499 437 499 524 q 535 304 499 350 q 638 258 572 258 z "},"A":{"ha":863,"x_min":-7,"x_max":860,"o":"m 485 0 l 485 104 l 596 133 l 546 303 l 274 303 l 221 128 l 343 106 l 343 0 l 11 0 l -7 108 l 69 133 l 344 958 l 517 958 l 796 133 l 860 108 l 846 0 l 485 0 m 317 449 l 485 449 l 411 761 l 317 449 z "},"B":{"ha":828,"x_min":49,"x_max":783,"o":"m 76 0 l 57 118 l 146 139 l 146 824 l 49 833 l 49 958 l 433 958 q 663 886 576 958 q 744 707 744 817 q 689 556 744 618 q 589 490 644 504 q 731 413 678 467 q 783 260 783 358 q 600 17 783 68 q 475 0 543 0 l 76 0 m 593 276 q 408 410 593 410 l 328 410 l 328 146 l 431 146 q 581 214 544 146 q 593 276 593 239 m 410 556 q 518 592 482 556 q 554 674 554 628 q 541 744 554 721 q 506 783 528 768 q 390 813 461 813 l 328 813 l 328 556 l 410 556 z "},"C":{"ha":815,"x_min":39,"x_max":783,"o":"m 603 738 q 595 755 603 738 q 580 789 588 772 q 568 810 572 806 q 508 814 564 814 q 401 791 453 814 q 311 725 350 768 q 225 483 228 631 q 306 236 228 331 q 514 140 386 140 q 628 161 571 140 q 725 222 685 182 l 783 99 q 590 3 719 26 q 481 -6 549 -6 q 328 24 413 -6 q 179 111 243 53 q 39 464 39 242 q 183 833 39 694 q 497 960 314 960 q 732 926 618 960 l 760 639 l 647 639 q 603 738 618 703 z "},"D":{"ha":885,"x_min":54,"x_max":842,"o":"m 54 122 l 144 140 l 144 825 l 57 836 l 57 958 l 304 958 q 806 694 694 958 q 842 490 842 607 q 722 127 842 254 q 364 0 601 0 l 74 0 l 54 122 m 326 146 l 353 144 q 576 231 500 144 q 651 485 651 318 q 568 732 651 651 q 326 813 485 813 l 326 146 z "},"E":{"ha":771,"x_min":54,"x_max":722,"o":"m 690 958 l 717 675 l 608 675 l 551 813 l 326 813 l 326 565 l 538 565 l 538 419 l 326 419 l 326 146 l 561 146 l 613 283 l 722 283 l 693 0 l 74 0 l 54 122 l 144 140 l 144 825 l 57 835 l 57 958 l 690 958 z "},"F":{"ha":733,"x_min":54,"x_max":717,"o":"m 553 0 l 74 0 l 54 122 l 144 140 l 144 825 l 57 835 l 57 958 l 690 958 l 717 674 l 611 674 l 551 813 l 326 813 l 326 565 l 538 565 l 538 419 l 326 419 l 326 146 l 563 110 l 553 0 z "},"G":{"ha":861,"x_min":38,"x_max":794,"o":"m 571 136 q 613 139 599 136 l 613 318 l 469 338 l 494 450 l 794 450 l 794 13 q 549 -6 668 -6 q 342 22 431 -6 q 186 108 253 50 q 38 468 38 236 q 175 831 38 696 q 519 961 308 961 q 725 936 632 961 q 760 926 749 929 l 785 640 l 672 640 l 601 811 q 511 815 564 815 q 406 791 458 815 q 314 721 353 767 q 228 468 228 622 q 315 229 228 319 q 571 136 406 136 z "},"H":{"ha":975,"x_min":56,"x_max":926,"o":"m 924 94 l 922 21 l 922 0 l 581 0 l 560 124 l 640 142 l 640 419 l 328 419 l 328 138 l 415 121 l 415 94 l 417 21 l 417 0 l 76 0 l 56 124 l 146 142 l 146 822 l 58 832 l 58 958 l 397 958 l 418 829 l 328 813 l 328 565 l 640 565 l 640 822 l 563 832 l 563 958 l 906 958 l 926 829 l 822 813 l 822 138 l 924 121 l 924 94 z "},"I":{"ha":483,"x_min":51,"x_max":436,"o":"m 433 94 l 432 21 l 432 0 l 71 0 l 51 124 l 149 142 l 149 822 l 54 832 l 54 958 l 415 958 l 436 829 l 331 813 l 331 138 l 433 121 l 433 94 z "},"J":{"ha":551,"x_min":3,"x_max":517,"o":"m 422 243 q 353 39 422 99 q 221 -6 301 -6 q 43 51 131 -6 q 3 82 19 67 l 100 222 q 169 172 140 190 q 217 153 197 153 q 240 189 240 153 l 240 813 l 129 829 l 150 958 l 517 958 l 517 832 l 422 822 l 422 243 z "},"K":{"ha":882,"x_min":51,"x_max":858,"o":"m 422 94 l 424 21 l 424 0 l 71 0 l 51 124 l 149 142 l 149 822 l 54 829 l 54 958 l 406 958 l 426 833 l 331 813 l 331 479 l 610 813 l 503 835 l 503 958 l 853 958 l 853 835 l 799 824 q 711 717 756 768 q 558 543 615 608 l 783 135 l 858 121 l 858 0 l 639 0 l 436 404 q 331 281 382 343 l 331 138 l 422 121 l 422 94 z "},"L":{"ha":728,"x_min":54,"x_max":722,"o":"m 410 958 l 431 832 l 326 813 l 326 146 l 561 146 l 613 283 l 722 283 l 693 0 l 74 0 l 54 122 l 144 140 l 144 825 l 57 835 l 57 958 l 410 958 z "},"M":{"ha":1243,"x_min":63,"x_max":1179,"o":"m 347 121 l 349 56 l 349 0 l 71 0 l 63 121 l 144 132 l 144 819 l 68 828 l 68 958 l 425 958 l 625 247 l 826 958 l 1158 958 l 1179 829 l 1103 813 l 1103 131 l 1174 121 l 1174 0 l 879 0 l 867 125 l 928 143 l 928 828 l 696 18 l 510 18 l 283 818 l 283 136 l 347 121 z "},"N":{"ha":1010,"x_min":51,"x_max":968,"o":"m 364 90 l 363 18 l 363 0 l 74 0 l 51 121 l 147 139 l 147 819 l 58 829 l 58 958 l 414 958 l 729 133 l 729 822 l 649 832 l 649 958 l 947 958 l 968 829 l 875 813 l 875 0 l 594 0 l 293 781 l 293 144 l 364 122 l 364 90 z "},"O":{"ha":910,"x_min":50,"x_max":860,"o":"m 456 -6 q 154 131 264 -6 q 50 479 50 260 q 154 828 50 699 q 456 963 263 963 q 756 828 650 963 q 860 479 860 697 q 756 131 860 261 q 456 -6 649 -6 m 240 476 q 299 238 240 333 q 456 140 357 140 q 611 238 553 140 q 669 476 669 333 q 611 718 669 622 q 456 817 551 817 q 299 718 358 817 q 240 476 240 622 z "},"P":{"ha":813,"x_min":51,"x_max":793,"o":"m 331 454 q 592 564 560 454 q 603 643 603 599 q 556 767 603 721 q 407 813 508 813 l 331 813 l 331 454 m 51 119 l 149 139 l 149 822 l 54 832 l 54 958 l 401 958 q 769 772 692 958 q 793 639 793 713 q 694 400 793 486 q 396 308 590 308 l 331 308 l 331 158 q 337 145 331 147 q 357 141 343 143 q 397 136 371 139 q 449 129 422 133 q 500 122 475 125 q 542 115 525 118 l 533 0 l 71 0 l 51 119 z "},"Q":{"ha":910,"x_min":50,"x_max":860,"o":"m 436 -21 l 725 -126 l 735 -179 l 604 -315 l 360 -100 l 436 -21 m 456 -6 q 154 131 264 -6 q 50 479 50 260 q 154 828 50 699 q 456 963 263 963 q 756 828 650 963 q 860 479 860 697 q 756 131 860 261 q 456 -6 649 -6 m 240 476 q 299 238 240 333 q 456 140 357 140 q 611 238 553 140 q 669 476 669 333 q 611 718 669 622 q 456 817 551 817 q 299 718 358 817 q 240 476 240 622 z "},"R":{"ha":850,"x_min":53,"x_max":811,"o":"m 794 646 q 601 367 794 446 l 724 135 l 811 121 l 811 0 l 576 0 l 432 325 q 331 321 383 321 l 331 132 l 403 121 l 403 0 l 65 0 l 53 118 l 149 138 l 149 822 l 54 832 l 54 958 l 394 958 q 697 871 593 958 q 794 646 794 788 m 331 468 q 351 467 339 467 l 376 467 q 553 518 492 467 q 607 642 607 564 q 550 767 607 729 q 331 811 485 811 l 331 468 z "},"S":{"ha":733,"x_min":50,"x_max":679,"o":"m 440 167 q 451 174 440 167 q 476 202 463 181 q 489 253 489 224 q 478 302 489 282 q 446 339 468 322 q 340 397 419 360 q 214 460 260 435 q 133 517 168 485 q 61 700 61 588 q 156 892 61 817 q 386 961 246 961 q 650 924 517 961 l 671 660 l 554 660 l 486 807 q 375 815 432 815 q 284 785 318 815 q 250 718 250 754 q 268 660 250 682 q 314 622 286 639 q 423 566 347 601 q 544 502 499 531 q 619 440 590 474 q 679 288 679 375 q 649 147 679 201 q 569 58 618 93 q 333 -6 478 -6 q 50 57 206 -6 l 78 325 l 194 315 l 206 161 q 255 149 224 157 q 322 140 286 140 q 388 147 358 140 q 440 167 417 153 z "},"T":{"ha":854,"x_min":14,"x_max":842,"o":"m 178 111 l 338 142 l 338 813 l 181 813 l 121 674 l 14 674 l 40 958 l 811 958 l 842 675 l 736 675 l 675 813 l 517 813 l 517 142 l 678 111 l 664 0 l 192 0 l 178 111 z "},"U":{"ha":931,"x_min":29,"x_max":893,"o":"m 490 140 q 665 349 665 140 l 665 824 l 576 836 l 576 958 l 893 958 l 893 832 l 811 814 l 811 344 q 729 88 811 182 q 490 -6 647 -6 q 203 86 289 -6 q 122 344 122 172 l 122 822 l 29 835 l 29 958 l 403 958 l 403 836 l 304 821 l 304 347 q 345 192 304 243 q 490 140 386 140 z "},"V":{"ha":888,"x_min":6,"x_max":882,"o":"m 339 958 l 358 849 l 251 825 l 469 181 q 489 239 474 196 q 567 471 524 340 l 613 607 q 654 731 635 674 q 685 825 674 789 l 558 850 l 558 958 l 882 958 l 882 835 l 831 825 l 543 0 l 347 0 l 56 825 l 6 835 l 6 958 l 339 958 z "},"W":{"ha":1368,"x_min":22,"x_max":1372,"o":"m 1372 958 l 1372 836 l 1264 808 l 1111 0 l 878 0 l 682 703 l 493 0 l 251 0 l 99 815 l 22 833 l 22 958 l 361 958 l 385 849 l 288 835 l 401 199 l 615 940 l 813 940 l 1019 179 l 1128 835 l 1011 853 l 1026 958 l 1372 958 z "},"X":{"ha":825,"x_min":18,"x_max":801,"o":"m 801 958 l 801 833 l 744 822 l 514 464 q 713 129 601 313 l 801 99 l 801 0 l 425 0 l 425 99 l 504 107 l 379 322 l 254 106 l 331 97 l 331 0 l 18 0 l 18 99 l 82 110 l 300 460 l 92 821 l 33 838 l 33 958 l 385 958 l 404 850 l 307 829 q 360 736 326 794 q 433 606 393 678 l 572 826 l 492 851 l 492 958 l 801 958 z "},"Y":{"ha":810,"x_min":-3,"x_max":808,"o":"m 336 958 l 357 849 l 258 829 l 431 529 l 586 833 l 501 849 l 501 958 l 808 958 l 808 836 l 747 821 l 500 349 l 500 133 l 660 101 l 647 0 l 174 0 l 160 101 l 318 133 l 318 350 l 53 821 l -3 835 l -3 958 l 336 958 z "},"Z":{"ha":781,"x_min":39,"x_max":732,"o":"m 39 110 l 507 813 l 200 813 l 174 660 l 65 660 l 65 958 l 704 958 l 732 829 q 533 517 664 713 q 360 260 401 322 q 285 146 319 197 l 583 146 l 608 299 l 719 299 l 719 0 l 65 0 l 39 110 z "},"[":{"ha":467,"x_min":103,"x_max":481,"o":"m 269 889 l 269 -142 l 481 -142 l 481 -251 q 471 -262 481 -262 l 113 -262 l 103 -246 l 103 992 l 113 1008 l 471 1008 q 481 999 481 1008 l 481 889 l 269 889 z "},"\\":{"ha":675,"x_min":28,"x_max":647,"o":"m 29 939 l 28 958 l 206 958 l 647 18 l 643 0 l 469 0 l 29 939 z "},"]":{"ha":467,"x_min":-14,"x_max":364,"o":"m -14 889 l -14 999 q -6 1008 -14 1008 l 353 1008 l 364 992 l 364 -232 l 353 -249 l -6 -249 q -14 -237 -14 -249 l -14 -128 l 196 -128 l 196 889 l -14 889 z "},"^":{"ha":714,"x_min":114,"x_max":642,"o":"m 114 779 l 351 1008 l 403 1008 l 642 778 l 632 761 l 513 761 l 376 856 l 240 761 l 122 761 l 114 779 z "},"_":{"ha":768,"x_min":0,"x_max":768,"o":"m 0 -119 l 0 -18 l 15 0 l 760 0 q 768 -10 768 0 l 768 -119 l 0 -119 z "},"`":{"ha":469,"x_min":79,"x_max":390,"o":"m 333 621 l 79 821 l 186 947 l 235 924 l 390 678 l 333 621 z "},"a":{"ha":643,"x_min":40,"x_max":619,"o":"m 397 61 q 242 -6 331 -6 q 92 47 147 -6 q 40 169 40 97 q 72 282 40 240 q 153 350 104 324 q 381 400 244 397 l 381 510 q 359 538 381 525 q 308 551 338 551 q 250 547 261 551 l 214 444 l 42 519 q 142 633 69 588 q 310 682 218 682 q 528 564 469 682 q 549 458 549 522 l 549 146 q 574 115 549 115 l 594 118 l 619 40 q 508 -6 567 -6 q 397 61 431 -6 m 381 283 q 213 192 213 275 q 228 148 213 168 q 278 128 243 128 q 342 149 314 128 q 381 193 369 169 l 381 283 z "},"b":{"ha":693,"x_min":1,"x_max":650,"o":"m 256 656 q 374 682 308 682 q 489 659 439 682 q 575 593 539 636 q 650 349 650 504 q 553 69 650 160 q 340 -6 471 -6 q 207 24 261 -6 l 133 -6 l 89 32 l 89 904 l 17 900 l 1 994 l 208 1022 l 256 974 l 256 656 m 256 143 q 340 125 283 125 q 438 177 397 125 q 478 340 478 229 q 440 501 478 450 q 346 551 401 551 q 256 526 290 551 l 256 143 z "},"c":{"ha":599,"x_min":42,"x_max":576,"o":"m 567 72 q 346 -6 492 -6 q 142 72 225 -6 q 42 324 42 164 q 142 607 42 513 q 344 682 219 682 q 517 628 449 682 q 576 558 551 600 l 408 468 l 349 551 q 249 492 285 551 q 214 331 214 432 q 301 143 214 190 q 368 126 332 126 q 429 134 404 126 q 474 152 454 142 q 508 174 494 163 q 531 193 522 186 q 539 167 533 183 q 550 132 544 150 q 560 97 556 114 q 567 72 564 81 z "},"d":{"ha":714,"x_min":43,"x_max":688,"o":"m 342 682 q 436 664 392 682 l 436 900 l 365 900 l 350 994 l 556 1024 l 604 972 l 604 146 q 631 115 604 115 q 661 124 644 115 l 688 51 q 610 1 664 19 q 564 -6 589 -6 q 454 53 486 -6 q 307 -6 404 -6 q 117 82 189 -6 q 43 325 43 172 q 144 608 43 514 q 342 682 224 682 m 436 525 q 354 553 406 553 q 228 438 260 553 q 215 309 215 393 q 248 176 215 225 q 339 126 281 126 q 399 146 368 126 q 436 194 429 165 l 436 525 z "},"e":{"ha":631,"x_min":42,"x_max":589,"o":"m 217 275 q 385 126 236 126 q 488 151 449 126 q 551 199 526 175 l 583 78 q 436 3 544 26 q 349 -6 400 -6 q 241 15 297 -6 q 140 78 185 36 q 42 332 42 171 q 142 599 42 501 q 351 682 225 682 q 514 636 447 682 q 589 492 589 583 q 499 325 589 382 q 288 274 418 274 l 250 274 q 217 275 232 274 m 218 392 q 239 390 225 390 l 264 390 q 404 440 365 390 q 418 488 418 458 q 400 534 418 518 q 356 550 382 550 q 306 538 329 550 q 264 503 282 525 q 218 392 224 458 z "},"f":{"ha":499,"x_min":17,"x_max":575,"o":"m 439 88 l 438 0 l 82 0 l 63 88 l 138 106 l 138 556 l 38 556 l 17 668 l 26 682 l 139 682 l 139 751 q 208 960 139 889 q 363 1019 267 1019 q 522 964 447 1019 q 575 907 550 942 l 417 811 l 361 888 q 317 870 329 888 q 306 822 306 853 l 306 682 l 464 682 q 471 674 471 682 l 471 556 l 306 556 l 306 103 l 439 88 z "},"g":{"ha":699,"x_min":31,"x_max":700,"o":"m 156 215 q 46 419 46 285 q 133 614 46 539 q 319 682 213 682 q 501 622 425 682 l 653 699 l 685 694 l 700 557 l 571 542 q 600 422 600 486 q 576 310 600 357 q 513 231 551 263 q 322 169 436 169 l 303 169 q 286 171 294 169 l 261 133 l 264 114 l 406 85 q 624 -112 624 39 q 528 -308 624 -233 q 299 -378 439 -378 q 103 -318 178 -378 q 31 -171 31 -260 q 138 8 31 -56 q 104 106 104 44 q 156 215 104 167 m 322 551 q 225 474 246 551 q 218 414 218 451 q 243 338 218 376 q 323 300 268 300 q 403 338 378 300 q 428 414 428 376 q 422 474 428 451 q 403 514 415 496 q 322 551 375 551 m 236 -47 q 182 -129 182 -82 q 261 -203 182 -183 q 328 -211 292 -211 q 392 -206 365 -211 q 442 -190 419 -200 q 490 -136 490 -169 q 466 -104 490 -115 q 405 -85 442 -93 q 323 -69 368 -76 q 236 -47 278 -61 z "},"h":{"ha":760,"x_min":25,"x_max":731,"o":"m 731 89 l 729 0 l 417 0 l 417 89 l 486 104 l 486 460 q 400 546 486 546 q 294 508 343 546 q 279 494 283 500 l 279 104 l 358 89 l 357 0 l 49 0 l 32 89 l 111 107 l 111 900 l 39 900 l 25 994 l 231 1024 l 279 972 l 279 632 q 350 667 306 651 q 439 682 394 682 q 522 671 483 682 q 590 638 561 660 q 654 499 654 589 l 654 106 l 731 89 z "},"i":{"ha":400,"x_min":36,"x_max":367,"o":"m 196 819 q 124 849 154 819 q 94 920 94 879 q 124 991 94 961 q 196 1021 154 1021 q 267 991 238 1021 q 296 920 296 961 q 267 849 296 879 q 196 819 238 819 m 36 647 l 243 683 l 290 633 l 290 104 l 367 89 l 367 0 l 60 0 l 44 89 l 122 107 l 122 553 l 51 553 l 36 647 z "},"j":{"ha":367,"x_min":-37,"x_max":278,"o":"m 38 -206 q 78 -224 56 -224 q 105 -201 100 -224 q 110 -146 110 -179 l 110 553 l 39 553 l 24 647 l 229 683 l 278 633 l 278 -143 q 206 -339 278 -283 q 93 -372 163 -372 q -37 -324 19 -372 l 38 -206 m 173 819 q 152 819 173 819 q 102 849 132 819 q 72 920 72 879 q 102 991 72 961 q 173 1021 132 1021 q 244 991 214 1021 q 274 920 274 961 q 244 849 274 879 q 173 819 214 819 z "},"k":{"ha":707,"x_min":25,"x_max":686,"o":"m 344 89 l 343 0 l 49 0 l 32 89 l 111 107 l 111 900 l 39 900 l 25 994 l 231 1024 l 279 972 l 279 378 l 457 574 l 383 574 l 369 682 l 615 682 l 664 592 l 471 399 l 619 101 l 685 86 l 686 0 l 476 0 l 347 275 l 279 207 l 279 104 l 344 89 z "},"l":{"ha":394,"x_min":22,"x_max":368,"o":"m 278 972 l 278 110 l 368 88 l 368 0 l 47 0 l 32 88 l 110 107 l 110 900 l 38 900 l 22 994 l 229 1024 l 278 972 z "},"m":{"ha":1140,"x_min":36,"x_max":1110,"o":"m 738 89 l 736 0 l 431 0 l 431 89 l 497 104 l 497 460 q 411 546 497 546 q 306 508 354 546 q 290 494 294 500 l 290 104 l 369 88 l 368 0 l 60 0 l 42 88 l 122 107 l 122 553 l 51 553 l 36 647 l 242 683 l 290 632 q 361 667 317 651 q 451 682 406 682 q 622 617 565 682 q 829 682 713 682 q 1022 581 974 682 q 1039 499 1039 546 l 1039 106 l 1110 89 l 1108 0 l 793 0 l 793 88 l 871 104 l 871 460 q 785 546 871 546 q 681 508 728 546 q 664 494 668 500 l 664 103 l 738 89 z "},"n":{"ha":771,"x_min":36,"x_max":742,"o":"m 36 647 l 242 683 l 290 632 q 361 667 317 651 q 450 682 406 682 q 533 671 494 682 q 601 638 572 660 q 665 499 665 589 l 665 101 l 742 89 l 740 0 l 428 0 l 428 89 l 497 104 l 497 460 q 411 546 497 546 q 306 508 354 546 q 290 494 294 500 l 290 104 l 369 88 l 368 0 l 60 0 l 44 89 l 122 107 l 122 553 l 51 553 l 36 647 z "},"o":{"ha":693,"x_min":40,"x_max":653,"o":"m 40 342 q 136 596 40 500 q 346 682 222 682 q 557 596 471 682 q 653 342 653 500 q 557 83 653 181 q 346 -6 471 -6 q 136 83 222 -6 q 40 342 40 181 m 213 333 q 294 136 213 172 q 346 125 318 125 q 469 236 442 125 q 481 333 481 275 q 397 539 481 500 q 346 551 374 551 q 222 433 253 551 q 213 333 213 392 z "},"p":{"ha":715,"x_min":22,"x_max":672,"o":"m 443 -289 l 442 -379 l 63 -379 l 40 -292 l 111 -271 l 111 558 l 40 549 l 22 649 l 231 682 l 263 650 q 392 682 322 682 q 511 659 461 682 q 597 593 561 636 q 672 349 672 504 q 575 69 672 160 q 363 -6 493 -6 q 279 6 321 -6 l 279 -253 l 443 -289 m 279 143 q 363 125 306 125 q 460 177 419 125 q 500 340 500 229 q 463 501 500 450 q 369 551 425 551 q 279 526 314 551 l 279 143 z "},"q":{"ha":693,"x_min":43,"x_max":681,"o":"m 329 682 q 476 653 413 682 l 557 685 l 604 651 l 604 -251 l 681 -278 l 681 -379 l 281 -379 l 265 -292 l 436 -258 l 436 33 q 319 -6 389 -6 q 199 19 249 -6 q 114 86 149 43 q 43 324 43 176 q 153 614 43 519 q 247 668 197 654 q 329 682 296 682 m 436 524 q 350 553 407 553 q 228 447 258 553 q 215 340 215 406 q 257 168 215 222 q 343 126 289 126 q 401 149 374 126 q 436 207 429 171 l 436 524 z "},"r":{"ha":594,"x_min":38,"x_max":599,"o":"m 460 89 l 461 0 l 61 0 l 40 89 l 124 111 l 124 557 l 53 551 l 38 646 q 84 654 56 649 q 142 665 113 660 q 231 682 219 681 l 278 610 q 344 663 306 644 q 432 682 383 682 q 530 653 481 682 q 599 561 579 625 l 431 474 l 389 543 q 328 511 354 543 q 292 397 292 468 l 292 138 q 313 130 292 136 q 364 115 335 124 q 460 89 433 94 z "},"s":{"ha":572,"x_min":24,"x_max":532,"o":"m 201 221 l 238 131 q 275 126 250 126 q 313 130 300 126 q 336 142 325 133 q 360 185 360 158 q 345 226 360 211 q 310 250 331 240 q 267 267 289 260 q 231 281 244 274 q 94 370 133 319 q 56 472 56 421 q 74 559 56 522 q 125 622 92 596 q 296 682 196 682 q 501 592 429 682 q 532 544 521 567 l 356 474 l 322 544 q 289 551 308 551 q 228 499 228 551 q 250 463 228 478 q 306 432 272 447 q 378 399 339 417 q 451 356 418 381 q 529 208 529 297 q 454 50 529 110 q 282 -4 383 -4 q 114 47 188 -4 q 24 153 49 92 l 201 221 z "},"t":{"ha":479,"x_min":3,"x_max":464,"o":"m 126 228 l 129 556 l 24 556 l 3 668 l 13 682 l 131 682 q 132 831 132 767 q 133 915 132 894 l 282 947 l 294 925 l 294 682 l 435 682 q 442 674 442 682 l 442 556 l 294 556 l 294 193 q 306 140 294 150 q 338 129 317 129 q 429 169 379 129 q 436 149 431 164 q 447 117 442 133 q 464 57 461 71 q 399 15 444 36 q 310 -6 354 -6 q 235 3 267 -6 q 181 35 204 13 q 126 192 126 83 l 126 228 z "},"u":{"ha":749,"x_min":18,"x_max":715,"o":"m 607 -6 q 494 61 525 -6 q 414 10 463 26 q 319 -6 365 -6 q 163 45 221 -6 q 104 203 104 96 l 104 553 l 33 553 l 18 646 l 224 683 l 272 631 l 272 235 q 298 154 272 181 q 364 128 324 128 q 436 150 404 128 q 479 200 468 172 l 479 557 l 417 553 l 400 646 l 599 683 l 647 631 l 647 146 q 669 115 647 115 l 689 118 l 715 40 q 678 13 707 31 q 607 -6 650 -6 z "},"v":{"ha":690,"x_min":-1,"x_max":688,"o":"m 263 0 l 79 565 l 10 565 l -1 665 l 232 682 l 382 176 l 526 565 l 468 565 l 456 665 l 661 682 l 688 632 l 456 0 l 263 0 z "},"w":{"ha":1029,"x_min":7,"x_max":1001,"o":"m 183 0 l 67 565 l 17 565 l 7 665 l 218 682 l 314 182 l 436 658 l 635 658 l 753 176 l 850 565 l 801 565 l 790 665 l 971 682 l 1001 632 l 842 0 l 624 0 l 514 447 l 403 0 l 183 0 z "},"x":{"ha":654,"x_min":36,"x_max":618,"o":"m 36 0 l 36 101 l 94 101 l 229 338 l 96 581 l 38 581 l 38 682 l 235 682 l 356 465 l 465 682 l 618 682 l 618 581 l 560 581 l 424 343 l 558 101 l 617 101 l 617 0 l 414 0 l 303 201 l 192 0 l 36 0 z "},"y":{"ha":692,"x_min":0,"x_max":689,"o":"m 689 632 q 592 357 667 571 q 492 72 517 143 q 445 -61 467 0 q 407 -167 424 -122 q 376 -249 390 -212 q 338 -316 363 -286 q 289 -361 314 -346 q 208 -381 256 -381 q 86 -349 147 -381 q 40 -317 61 -336 l 115 -200 q 197 -250 175 -250 q 235 -232 219 -250 q 268 -168 251 -214 l 299 -85 l 64 565 l 11 565 l 0 665 l 208 682 l 389 165 q 441 309 415 239 q 490 442 467 379 q 533 565 513 504 l 469 565 l 458 667 l 661 682 l 689 632 z "},"z":{"ha":585,"x_min":53,"x_max":531,"o":"m 53 133 l 342 551 l 164 551 l 147 457 l 53 457 l 53 682 l 531 682 l 531 549 l 250 135 l 418 135 l 435 226 l 531 226 l 531 0 l 54 0 l 53 133 z "},"{":{"ha":510,"x_min":3,"x_max":522,"o":"m 151 68 l 157 194 q 108 292 157 256 q 3 325 64 325 l 3 439 q 108 472 64 439 q 157 567 157 508 l 151 699 q 197 903 151 833 q 396 990 254 990 q 522 969 472 990 l 472 808 l 364 854 q 329 801 336 843 q 322 704 322 758 l 324 592 q 250 403 324 439 q 190 385 225 389 l 179 381 q 292 325 261 371 q 324 172 324 279 l 322 61 q 364 -89 322 -72 l 472 -42 l 522 -204 q 395 -225 472 -225 q 271 -201 318 -225 q 197 -136 224 -176 q 151 68 151 -69 z "},"|":{"ha":375,"x_min":104,"x_max":271,"o":"m 271 957 l 271 -279 l 104 -279 l 104 957 l 271 957 z "},"}":{"ha":511,"x_min":-12,"x_max":508,"o":"m 360 699 l 354 567 q 403 472 354 508 q 508 439 447 439 l 508 325 q 403 292 447 325 q 354 194 354 256 l 360 68 q 314 -136 360 -69 q 115 -225 254 -225 q -12 -204 42 -225 l 39 -42 l 147 -89 q 181 -35 174 -78 q 189 61 189 8 l 188 172 q 219 325 188 279 q 321 379 250 371 l 332 383 q 259 402 283 389 q 219 439 235 415 q 188 592 188 488 l 189 704 q 182 801 189 758 q 147 854 175 843 l 39 808 l -12 969 q 117 990 42 990 q 240 967 192 990 q 314 903 288 943 q 360 699 360 833 z "},"~":{"ha":606,"x_min":28,"x_max":589,"o":"m 476 968 l 589 864 q 421 754 508 754 q 319 786 375 754 q 277 807 299 797 q 221 817 256 817 q 163 793 186 817 q 131 742 139 769 l 28 804 l 28 829 q 75 901 42 872 q 211 957 139 957 q 375 899 283 957 q 401 888 392 888 l 476 968 z "},"¡":{"ha":367,"x_min":71,"x_max":300,"o":"m 233 335 l 300 -226 l 271 -279 l 71 -260 l 125 335 l 233 335 m 88 590 q 115 656 88 629 q 181 683 143 683 q 247 656 219 683 q 274 590 274 629 q 247 525 274 551 q 181 499 219 499 q 115 525 143 499 q 88 590 88 551 z "},"¢":{"ha":608,"x_min":38,"x_max":572,"o":"m 563 72 q 421 1 513 19 l 421 -278 l 253 -278 l 253 7 q 56 200 104 50 q 38 330 38 254 q 56 466 38 406 q 103 568 74 526 q 253 671 160 646 l 253 957 l 421 957 l 421 672 q 560 578 513 650 q 572 558 569 564 l 404 468 l 344 551 q 245 492 281 551 q 210 331 210 432 q 297 143 210 190 q 364 126 328 126 q 425 134 400 126 q 470 152 450 142 q 504 174 490 163 q 526 193 518 186 q 535 167 529 183 q 546 132 540 150 q 556 97 551 114 q 563 72 560 81 z "},"£":{"ha":733,"x_min":35,"x_max":692,"o":"m 226 626 l 225 706 q 300 906 225 839 q 463 961 365 961 q 658 888 560 961 l 532 747 l 474 814 q 414 781 426 814 q 406 674 406 754 l 406 622 q 404 574 406 599 l 578 574 q 588 563 588 574 l 588 442 l 393 442 q 339 199 378 300 q 439 171 388 189 q 546 142 528 142 l 596 200 l 692 47 q 535 -6 643 -6 q 401 16 467 -6 q 303 47 335 38 q 233 57 271 57 q 173 38 196 57 q 143 -6 150 18 l 39 4 l 35 67 q 100 157 51 106 q 215 442 189 251 l 125 442 l 125 561 l 136 574 l 225 574 q 226 599 226 586 l 226 626 z "},"¤":{"ha":813,"x_min":61,"x_max":753,"o":"m 642 618 q 679 481 679 554 q 644 347 679 408 l 753 239 l 649 136 l 542 243 q 406 208 479 208 q 272 243 333 208 l 165 136 l 61 239 l 169 347 q 135 483 135 408 q 171 619 135 558 l 61 729 l 165 833 l 276 721 q 407 754 340 754 q 538 721 474 754 l 649 833 l 753 729 l 642 618 m 279 481 q 314 388 279 424 q 406 353 349 353 q 499 388 464 353 q 533 481 533 424 q 499 573 533 538 q 406 608 464 608 q 314 573 349 608 q 279 481 279 538 z "},"¥":{"ha":881,"x_min":35,"x_max":846,"o":"m 374 960 l 394 850 l 296 831 l 469 581 l 624 835 l 539 850 l 539 960 l 846 960 l 846 838 l 785 822 l 549 438 l 686 438 l 686 314 l 538 314 l 538 294 l 686 294 l 686 171 l 538 171 l 538 133 l 697 101 l 685 0 l 211 0 l 197 101 l 356 133 l 356 171 l 193 171 l 193 294 l 356 294 l 356 314 l 193 314 l 193 438 l 344 438 l 90 822 l 35 836 l 35 960 l 374 960 z "},"¦":{"ha":382,"x_min":107,"x_max":275,"o":"m 107 397 l 107 958 l 275 958 l 275 397 l 107 397 m 107 -343 l 107 211 l 275 211 l 275 -343 l 107 -343 z "},"§":{"ha":711,"x_min":44,"x_max":656,"o":"m 150 538 q 72 711 72 610 q 156 889 72 819 q 372 961 240 961 q 635 924 501 961 l 656 658 l 539 658 l 476 818 q 374 829 428 829 q 292 802 321 829 q 263 740 263 775 q 278 682 263 704 q 322 642 294 660 q 436 585 349 625 q 560 517 524 544 q 617 463 597 490 q 653 338 653 414 q 581 193 653 263 q 643 51 643 133 q 615 -82 643 -32 q 539 -164 586 -132 q 310 -224 453 -224 q 165 -206 229 -224 q 44 -165 101 -187 l 72 104 l 189 93 l 201 -75 q 323 -92 268 -92 q 416 -68 378 -92 q 454 -1 454 -44 q 426 69 454 43 q 355 115 397 94 q 263 157 313 136 q 169 208 213 178 q 71 383 71 278 q 150 538 71 471 m 440 282 q 464 333 464 306 q 441 378 464 360 q 385 413 418 397 q 328 439 351 429 q 281 460 306 449 q 260 410 260 436 q 276 367 260 383 q 319 336 293 350 q 376 310 346 322 q 423 290 407 299 q 440 282 439 282 z "},"¨":{"ha":579,"x_min":72,"x_max":507,"o":"m 72 738 q 100 806 72 778 q 167 833 128 833 q 235 806 207 833 q 263 738 263 778 q 235 670 263 697 q 167 643 207 643 q 100 670 128 643 q 72 738 72 697 m 319 738 q 347 806 319 778 q 414 833 374 833 q 481 806 454 833 q 507 738 507 778 q 481 670 507 697 q 414 643 454 643 q 347 670 374 643 q 319 738 319 697 z "},"©":{"ha":1044,"x_min":42,"x_max":1003,"o":"m 42 518 q 79 704 42 617 q 182 857 117 792 q 335 960 247 922 q 521 999 422 999 q 707 960 619 999 q 860 857 794 922 q 965 704 926 792 q 1003 518 1003 617 q 965 332 1003 419 q 860 179 926 244 q 707 76 794 114 q 521 38 619 38 q 335 76 422 38 q 182 179 247 114 q 79 332 117 244 q 42 518 42 419 m 222 519 q 246 402 222 457 q 311 306 269 347 q 522 218 399 218 q 733 306 647 218 q 821 519 821 396 q 733 731 821 640 q 522 818 647 818 q 310 730 399 818 q 222 519 222 642 m 413 519 q 413 493 413 519 q 449 434 413 467 q 530 401 486 401 q 621 425 574 401 l 669 306 q 547 265 607 265 q 440 283 486 265 q 358 333 393 301 q 282 515 282 404 q 358 708 282 635 q 538 775 428 775 q 631 767 585 775 l 643 574 l 567 574 l 546 638 q 533 639 539 639 l 524 639 q 440 605 468 639 q 413 519 413 571 z "},"ª":{"ha":535,"x_min":44,"x_max":500,"o":"m 46 893 q 244 1006 88 1006 q 435 892 403 1006 q 444 839 444 858 q 443 813 443 819 l 443 693 q 446 682 443 682 l 456 682 l 475 685 l 500 601 q 401 561 453 561 q 317 604 350 561 q 192 557 272 557 q 94 589 138 557 q 44 681 44 626 q 68 763 44 735 q 128 806 92 790 q 290 831 188 831 l 290 847 q 281 878 290 861 q 246 896 272 896 q 215 889 228 896 l 203 857 l 46 893 m 290 757 q 189 708 189 757 q 197 683 189 697 q 238 669 206 669 q 290 696 271 669 l 290 757 z "},"«":{"ha":651,"x_min":1,"x_max":606,"o":"m 390 675 l 185 468 l 389 264 l 297 171 l 1 471 l 297 768 l 390 675 m 606 646 l 429 468 l 604 293 l 513 200 l 244 471 l 513 739 l 606 646 z "},"¬":{"ha":794,"x_min":57,"x_max":717,"o":"m 571 521 l 57 521 l 57 650 l 71 667 l 699 667 l 717 649 l 717 371 q 706 361 717 361 l 571 361 l 571 521 z "},"­":{"ha":596,"x_min":-42,"x_max":638,"o":"m 638 436 l -42 436 l -42 582 l 638 582 l 638 436 z "},"®":{"ha":1044,"x_min":42,"x_max":1003,"o":"m 42 518 q 79 704 42 617 q 182 857 117 792 q 335 960 247 922 q 521 999 422 999 q 707 960 619 999 q 860 857 794 922 q 965 704 926 792 q 1003 518 1003 617 q 965 332 1003 419 q 860 179 926 244 q 707 76 794 114 q 521 38 619 38 q 335 76 422 38 q 182 179 247 114 q 79 332 117 244 q 42 518 42 419 m 222 519 q 246 402 222 457 q 311 306 269 347 q 522 218 399 218 q 733 306 647 218 q 821 519 821 396 q 733 731 821 640 q 522 818 647 818 q 310 730 399 818 q 222 519 222 642 m 371 651 q 342 656 350 653 l 342 750 l 490 750 q 661 700 606 750 q 708 580 708 658 q 642 460 708 501 l 674 374 l 711 368 l 711 289 l 574 289 l 532 426 q 507 425 519 425 l 481 425 l 481 372 l 538 357 l 538 289 l 346 289 l 343 360 l 371 371 l 371 651 m 481 526 q 589 564 576 526 q 592 594 592 575 q 569 631 592 614 q 481 647 547 647 l 481 526 z "},"¯":{"ha":615,"x_min":79,"x_max":536,"o":"m 79 1008 l 536 1008 l 536 874 l 79 874 l 79 1008 z "},"°":{"ha":481,"x_min":39,"x_max":442,"o":"m 239 1006 q 386 942 328 1006 q 442 783 442 881 q 386 619 442 682 q 238 557 328 557 q 94 619 149 557 q 39 781 39 682 q 94 942 39 879 q 239 1006 150 1006 m 239 879 q 185 783 185 879 q 239 682 185 682 q 286 722 271 682 q 296 783 296 744 q 269 868 296 842 q 239 879 258 879 z "},"±":{"ha":629,"x_min":64,"x_max":561,"o":"m 376 718 l 376 557 l 561 557 l 561 422 l 376 422 l 376 260 l 246 260 l 246 422 l 64 422 l 64 525 l 86 557 l 246 557 l 246 718 l 376 718 m 561 71 l 64 71 l 64 174 l 86 206 l 561 206 l 561 71 z "},"²":{"ha":467,"x_min":38,"x_max":411,"o":"m 81 558 l 57 640 q 103 681 69 654 q 169 738 136 707 q 257 860 257 815 q 242 896 257 888 q 217 904 228 904 q 189 900 206 904 l 161 843 l 38 882 q 176 1003 74 975 q 235 1011 207 1011 q 293 1003 264 1011 q 347 978 322 994 q 403 871 403 939 q 278 692 403 767 q 233 663 250 674 l 313 663 l 338 713 l 411 713 l 396 558 l 81 558 z "},"³":{"ha":449,"x_min":39,"x_max":403,"o":"m 86 710 q 201 661 135 661 q 242 674 226 661 q 257 708 257 686 q 238 740 257 729 q 156 750 219 750 l 156 822 q 244 857 235 822 q 247 877 247 867 q 237 897 247 888 q 212 906 226 906 q 191 903 197 906 q 179 900 185 901 l 158 863 l 43 903 q 119 985 67 960 q 217 1011 171 1011 q 293 1002 264 1011 q 344 976 322 993 q 393 891 393 940 q 369 820 393 842 q 318 792 344 799 q 369 768 354 782 q 403 695 403 738 q 386 627 403 653 q 342 586 369 601 q 220 558 292 558 q 103 578 149 558 q 39 615 57 599 l 86 710 z "},"´":{"ha":483,"x_min":72,"x_max":411,"o":"m 72 713 l 251 940 l 303 961 l 411 810 l 138 638 l 72 713 z "},"µ":{"ha":781,"x_min":35,"x_max":732,"o":"m 285 4 q 290 -57 290 -29 l 290 -381 l 122 -381 l 122 553 l 49 553 l 35 646 l 243 683 l 290 636 l 290 210 q 383 128 301 128 q 453 150 421 128 q 496 200 485 172 l 496 557 l 433 553 l 418 646 l 615 683 l 664 631 l 664 146 q 686 115 664 115 l 706 118 l 732 40 q 696 13 724 31 q 625 -6 668 -6 q 513 60 543 -6 q 364 -6 453 -6 q 285 4 331 -6 z "},"¶":{"ha":911,"x_min":38,"x_max":826,"o":"m 597 0 l 597 821 l 524 821 l 524 144 q 481 57 524 107 q 385 -24 446 15 l 274 122 l 360 181 l 360 415 q 124 497 213 418 q 38 694 38 572 q 106 872 38 800 q 342 960 189 960 l 826 960 l 826 821 l 779 821 l 779 0 l 597 0 z "},"·":{"ha":338,"x_min":75,"x_max":264,"o":"m 75 554 l 239 554 l 264 526 l 264 311 l 75 311 l 75 554 z "},"¸":{"ha":576,"x_min":89,"x_max":496,"o":"m 186 -114 l 233 21 l 376 21 l 351 -57 q 483 -151 450 -76 q 496 -216 496 -179 q 481 -285 496 -253 q 436 -343 465 -318 q 267 -397 371 -397 q 166 -385 208 -397 q 89 -360 124 -372 l 158 -225 l 258 -292 q 336 -254 310 -292 q 346 -215 346 -240 q 322 -165 346 -189 q 238 -142 297 -142 l 219 -140 l 186 -114 z "},"¹":{"ha":361,"x_min":36,"x_max":314,"o":"m 64 621 l 117 632 l 117 906 l 49 894 l 36 957 l 243 1010 l 267 993 l 263 926 l 263 636 l 314 624 l 314 558 l 68 558 l 64 621 z "},"º":{"ha":492,"x_min":42,"x_max":450,"o":"m 244 554 q 97 611 151 554 q 42 783 42 668 q 97 953 42 899 q 244 1008 151 1008 q 394 953 338 1008 q 450 783 450 899 q 394 611 450 668 q 244 554 338 554 m 244 878 q 197 850 206 878 q 188 778 188 822 q 197 709 188 735 q 244 683 206 683 q 294 709 283 683 q 304 778 304 735 q 294 850 304 822 q 244 878 283 878 z "},"»":{"ha":651,"x_min":46,"x_max":651,"o":"m 356 768 l 651 468 l 356 171 l 264 264 l 468 468 l 263 675 l 356 768 m 139 739 l 407 468 l 139 200 l 47 293 l 222 468 l 46 646 l 139 739 z "},"¼":{"ha":1051,"x_min":40,"x_max":1008,"o":"m 353 0 l 179 0 l 175 18 l 617 960 l 794 960 l 793 940 l 353 0 m 1007 140 l 944 140 l 944 92 l 1008 81 l 1008 0 l 675 0 l 667 68 l 783 88 l 783 140 l 547 140 l 547 251 l 783 556 l 944 556 l 944 257 l 1007 257 l 1007 140 m 63 515 l 126 525 l 126 844 l 51 833 l 40 925 l 268 992 l 286 975 l 286 529 l 344 518 l 344 438 l 63 438 l 63 515 m 783 257 l 783 374 l 681 257 l 783 257 z "},"½":{"ha":1089,"x_min":40,"x_max":1049,"o":"m 656 -1 l 629 94 q 660 129 639 107 q 708 179 682 151 q 763 237 735 207 q 813 296 790 267 q 864 389 864 364 q 855 413 864 404 q 829 422 846 422 q 806 419 813 422 l 781 346 l 618 408 q 713 520 654 486 q 819 554 771 554 q 904 547 868 554 q 967 521 940 539 q 1028 394 1028 481 q 956 231 1028 326 q 850 122 903 161 l 943 122 l 976 207 l 1049 207 l 1026 -1 l 656 -1 m 365 0 l 192 0 l 188 18 l 629 960 l 807 960 l 806 940 l 365 0 m 63 515 l 126 525 l 126 844 l 51 833 l 40 925 l 268 992 l 286 975 l 286 529 l 339 518 l 339 438 l 63 438 l 63 515 z "},"¾":{"ha":1118,"x_min":36,"x_max":1072,"o":"m 440 0 l 267 0 l 263 18 l 704 960 l 882 960 l 881 940 l 440 0 m 1071 140 l 1008 140 l 1008 92 l 1072 81 l 1072 0 l 739 0 l 731 68 l 847 88 l 847 140 l 611 140 l 611 251 l 857 556 l 1008 556 l 1008 257 l 1071 257 l 1071 140 m 199 769 l 219 768 q 299 818 299 768 q 285 849 299 835 q 251 863 272 863 q 211 854 228 863 l 186 785 l 36 840 q 128 956 60 913 q 265 993 190 993 q 444 914 401 993 q 461 844 461 885 q 443 772 461 804 q 393 726 425 739 q 442 690 431 703 q 471 613 471 658 q 453 533 471 567 q 403 478 435 500 q 256 435 343 435 q 51 504 125 435 l 131 617 q 189 578 158 590 q 240 565 219 565 q 281 576 260 565 q 301 615 301 588 q 284 656 301 643 q 225 669 267 669 l 199 668 l 199 769 m 847 257 l 847 374 l 744 257 l 847 257 z "},"¿":{"ha":565,"x_min":31,"x_max":518,"o":"m 410 351 q 422 267 422 319 q 408 185 422 215 q 370 131 393 154 q 322 89 347 108 q 272 50 296 69 q 221 -43 221 6 q 246 -115 221 -92 q 303 -137 271 -137 q 383 -125 364 -137 l 419 7 l 518 7 l 496 -236 q 401 -266 451 -251 q 284 -281 350 -281 q 172 -263 218 -281 q 94 -217 125 -246 q 31 -69 31 -158 q 150 169 31 71 q 248 265 225 231 q 271 338 271 300 l 271 350 l 410 351 m 433 590 q 406 525 433 551 q 340 499 379 499 q 275 525 301 499 q 249 590 249 551 q 275 656 249 629 q 340 683 301 683 q 406 656 379 683 q 433 590 433 629 z "},"À":{"ha":863,"x_min":-7,"x_max":860,"o":"m 485 0 l 485 104 l 596 133 l 546 303 l 274 303 l 221 128 l 343 106 l 343 0 l 11 0 l -7 108 l 69 133 l 344 960 l 517 960 l 796 133 l 860 108 l 846 0 l 485 0 m 317 449 l 485 449 l 411 763 l 317 449 m 524 1006 l 269 1206 l 376 1332 l 425 1308 l 581 1063 l 524 1006 z "},"Á":{"ha":863,"x_min":-7,"x_max":860,"o":"m 485 0 l 485 104 l 596 133 l 546 303 l 274 303 l 221 128 l 343 106 l 343 0 l 11 0 l -7 108 l 69 133 l 344 960 l 517 960 l 796 133 l 860 108 l 846 0 l 485 0 m 317 449 l 485 449 l 411 763 l 317 449 m 260 1104 l 439 1332 l 490 1353 l 599 1201 l 325 1029 l 260 1104 z "},"Â":{"ha":863,"x_min":-7,"x_max":860,"o":"m 160 1024 l 397 1254 l 449 1254 l 688 1022 l 676 1006 l 557 1006 l 422 1086 l 286 1006 l 168 1006 l 160 1024 m 485 0 l 485 104 l 596 133 l 546 303 l 274 303 l 221 128 l 343 106 l 343 0 l 11 0 l -7 108 l 69 133 l 344 960 l 517 960 l 796 133 l 860 108 l 846 0 l 485 0 m 317 449 l 485 449 l 411 763 l 317 449 z "},"Ã":{"ha":863,"x_min":-7,"x_max":860,"o":"m 601 1224 l 714 1118 q 638 1043 683 1076 q 551 1010 592 1010 q 488 1019 511 1010 q 444 1041 465 1029 q 402 1063 424 1053 q 346 1072 381 1072 q 288 1048 311 1072 q 256 997 264 1024 l 153 1058 l 153 1085 q 200 1157 167 1128 q 336 1213 264 1213 q 500 1154 408 1213 q 526 1143 517 1143 l 601 1224 m 485 0 l 485 104 l 596 133 l 546 303 l 274 303 l 221 128 l 343 106 l 343 0 l 11 0 l -7 108 l 69 133 l 344 960 l 517 960 l 796 133 l 860 108 l 846 0 l 485 0 m 317 449 l 485 449 l 411 763 l 317 449 z "},"Ä":{"ha":863,"x_min":-7,"x_max":860,"o":"m 485 0 l 485 104 l 596 133 l 546 303 l 274 303 l 221 128 l 343 106 l 343 0 l 11 0 l -7 108 l 69 133 l 344 958 l 517 958 l 796 133 l 860 108 l 846 0 l 485 0 m 317 449 l 485 449 l 411 761 l 317 449 m 215 1117 q 243 1185 215 1157 q 310 1213 271 1213 q 378 1185 350 1213 q 406 1117 406 1157 q 378 1049 406 1076 q 310 1022 350 1022 q 243 1049 271 1022 q 215 1117 215 1076 m 463 1117 q 490 1185 463 1157 q 557 1213 517 1213 q 624 1185 597 1213 q 650 1117 650 1157 q 624 1049 650 1076 q 557 1022 597 1022 q 490 1049 517 1022 q 463 1117 463 1076 z "},"Å":{"ha":857,"x_min":-10,"x_max":857,"o":"m 565 1028 q 525 925 565 965 l 793 133 l 857 108 l 843 0 l 482 0 l 482 104 l 593 133 l 543 303 l 271 303 l 218 128 l 340 106 l 340 0 l 8 0 l -10 108 l 67 133 l 325 911 q 271 1028 271 953 q 313 1133 271 1090 q 418 1175 356 1175 q 522 1133 482 1175 q 565 1028 565 1088 m 314 449 l 482 449 l 408 763 l 314 449 m 364 1028 q 378 988 364 1003 q 417 974 392 974 q 457 988 443 974 q 471 1028 471 1003 q 457 1067 471 1053 q 417 1082 443 1082 q 378 1067 392 1082 q 364 1028 364 1053 z "},"Æ":{"ha":1115,"x_min":-17,"x_max":1067,"o":"m 1 0 l -17 108 l 57 133 l 369 960 l 1035 960 l 1063 676 l 953 676 l 897 814 l 672 814 l 672 567 l 883 567 l 883 421 l 672 421 l 672 146 l 907 146 l 958 283 l 1067 283 l 1038 0 l 435 0 l 414 122 l 490 140 l 490 361 l 299 361 l 211 128 l 333 106 l 333 0 l 1 0 m 475 828 l 354 507 l 490 507 l 490 826 l 475 828 z "},"Ç":{"ha":818,"x_min":42,"x_max":786,"o":"m 606 738 q 598 755 606 738 q 583 789 590 772 q 571 810 575 806 q 511 814 567 814 q 404 791 456 814 q 314 725 353 768 q 231 483 231 631 q 308 236 231 331 q 517 140 389 140 q 631 161 574 140 q 728 222 688 182 l 786 99 q 692 33 754 60 q 560 -3 631 6 l 543 -57 q 675 -151 642 -76 q 688 -216 688 -179 q 672 -285 688 -253 q 628 -343 657 -318 q 458 -397 563 -397 q 358 -385 400 -397 q 281 -360 315 -372 l 350 -225 l 450 -292 q 528 -254 501 -292 q 538 -215 538 -240 q 513 -165 538 -189 q 429 -142 489 -142 l 411 -140 l 378 -114 l 418 1 q 151 143 253 28 q 42 464 42 268 q 186 833 42 694 q 500 960 317 960 q 735 926 621 960 l 763 639 l 650 639 q 606 738 621 703 z "},"È":{"ha":771,"x_min":54,"x_max":722,"o":"m 690 960 l 717 676 l 608 676 l 551 814 l 326 814 l 326 567 l 538 567 l 538 421 l 326 421 l 326 146 l 561 146 l 613 283 l 722 283 l 693 0 l 74 0 l 54 122 l 144 140 l 144 826 l 57 836 l 57 960 l 690 960 m 490 1006 l 236 1206 l 343 1332 l 392 1308 l 547 1063 l 490 1006 z "},"É":{"ha":771,"x_min":54,"x_max":722,"o":"m 690 958 l 717 675 l 608 675 l 551 813 l 326 813 l 326 565 l 538 565 l 538 419 l 326 419 l 326 146 l 561 146 l 613 283 l 722 283 l 693 0 l 74 0 l 54 122 l 144 140 l 144 825 l 57 835 l 57 958 l 690 958 m 285 1104 l 464 1332 l 515 1353 l 624 1201 l 350 1029 l 285 1104 z "},"Ê":{"ha":771,"x_min":54,"x_max":722,"o":"m 128 1024 l 365 1254 l 417 1254 l 656 1022 l 646 1006 l 526 1006 l 390 1086 l 256 1006 l 138 1006 l 128 1024 m 690 960 l 717 676 l 608 676 l 551 814 l 326 814 l 326 567 l 538 567 l 538 421 l 326 421 l 326 146 l 561 146 l 613 283 l 722 283 l 693 0 l 74 0 l 54 122 l 144 140 l 144 826 l 57 836 l 57 960 l 690 960 z "},"Ë":{"ha":771,"x_min":54,"x_max":722,"o":"m 690 960 l 717 676 l 608 676 l 551 814 l 326 814 l 326 567 l 538 567 l 538 421 l 326 421 l 326 146 l 561 146 l 613 283 l 722 283 l 693 0 l 74 0 l 54 122 l 144 140 l 144 826 l 57 836 l 57 960 l 690 960 m 182 1117 q 210 1185 182 1157 q 277 1213 238 1213 q 344 1185 317 1213 q 372 1117 372 1157 q 344 1049 372 1076 q 277 1022 317 1022 q 210 1049 238 1022 q 182 1117 182 1076 m 429 1117 q 456 1185 429 1157 q 524 1213 483 1213 q 590 1185 564 1213 q 617 1117 617 1157 q 590 1049 617 1076 q 524 1022 564 1022 q 456 1049 483 1022 q 429 1117 429 1076 z "},"Ì":{"ha":483,"x_min":51,"x_max":436,"o":"m 433 94 l 432 21 l 432 0 l 71 0 l 51 124 l 149 142 l 149 824 l 54 833 l 54 960 l 415 960 l 436 831 l 331 814 l 331 138 l 433 121 l 433 94 m 335 1006 l 81 1206 l 188 1332 l 236 1308 l 392 1063 l 335 1006 z "},"Í":{"ha":483,"x_min":51,"x_max":438,"o":"m 433 94 l 432 21 l 432 0 l 71 0 l 51 124 l 149 142 l 149 824 l 54 833 l 54 960 l 415 960 l 436 831 l 331 814 l 331 138 l 433 121 l 433 94 m 99 1104 l 278 1332 l 329 1353 l 438 1201 l 164 1029 l 99 1104 z "},"Î":{"ha":483,"x_min":-19,"x_max":508,"o":"m 433 94 l 432 21 l 432 0 l 71 0 l 51 124 l 149 142 l 149 824 l 54 833 l 54 960 l 415 960 l 436 831 l 331 814 l 331 138 l 433 121 l 433 94 m -19 1024 l 218 1254 l 269 1254 l 508 1022 l 499 1006 l 379 1006 l 243 1086 l 107 1006 l -11 1006 l -19 1024 z "},"Ï":{"ha":483,"x_min":32,"x_max":467,"o":"m 433 94 l 432 21 l 432 0 l 71 0 l 51 124 l 149 142 l 149 824 l 54 833 l 54 960 l 415 960 l 436 831 l 331 814 l 331 138 l 433 121 l 433 94 m 32 1117 q 60 1185 32 1157 q 127 1213 88 1213 q 194 1185 167 1213 q 222 1117 222 1157 q 194 1049 222 1076 q 127 1022 167 1022 q 60 1049 88 1022 q 32 1117 32 1076 m 279 1117 q 306 1185 279 1157 q 374 1213 333 1213 q 440 1185 414 1213 q 467 1117 467 1157 q 440 1049 467 1076 q 374 1022 414 1022 q 306 1049 333 1022 q 279 1117 279 1076 z "},"Ð":{"ha":888,"x_min":19,"x_max":844,"o":"m 57 122 l 147 140 l 147 429 l 19 429 l 19 543 l 39 560 l 147 560 l 147 826 l 60 838 l 60 960 l 308 960 q 808 697 697 960 q 844 492 844 608 q 724 128 844 257 q 368 0 603 0 l 67 0 l 57 122 m 329 146 l 356 144 q 579 232 503 144 q 656 486 656 319 q 329 814 656 814 l 329 560 l 503 560 q 513 550 513 560 l 513 429 l 329 429 l 329 146 z "},"Ñ":{"ha":1010,"x_min":51,"x_max":968,"o":"m 364 90 l 363 18 l 363 0 l 74 0 l 51 121 l 147 139 l 147 819 l 58 829 l 58 958 l 414 958 l 729 133 l 729 822 l 649 832 l 649 958 l 947 958 l 968 829 l 875 813 l 875 0 l 594 0 l 293 781 l 293 144 l 364 122 l 364 90 m 675 1224 l 788 1118 q 711 1043 757 1076 q 625 1010 665 1010 q 562 1019 585 1010 q 518 1041 539 1029 q 476 1063 497 1053 q 419 1072 454 1072 q 361 1048 385 1072 q 329 997 338 1024 l 226 1058 l 226 1085 q 274 1157 240 1128 q 410 1213 338 1213 q 572 1154 482 1213 q 600 1143 590 1143 l 675 1224 z "},"Ò":{"ha":910,"x_min":50,"x_max":860,"o":"m 456 -6 q 154 131 264 -6 q 50 479 50 260 q 154 828 50 699 q 456 963 263 963 q 756 828 650 963 q 860 479 860 697 q 756 131 860 261 q 456 -6 649 -6 m 240 476 q 299 238 240 333 q 456 140 357 140 q 611 238 553 140 q 669 476 669 333 q 611 718 669 622 q 456 817 551 817 q 299 718 358 817 q 240 476 240 622 m 539 1006 l 285 1206 l 392 1332 l 440 1308 l 596 1063 l 539 1006 z "},"Ó":{"ha":910,"x_min":50,"x_max":860,"o":"m 456 -6 q 154 131 264 -6 q 50 479 50 260 q 154 828 50 699 q 456 963 263 963 q 756 828 650 963 q 860 479 860 697 q 756 131 860 261 q 456 -6 649 -6 m 240 476 q 299 238 240 333 q 456 140 357 140 q 611 238 553 140 q 669 476 669 333 q 611 718 669 622 q 456 817 551 817 q 299 718 358 817 q 240 476 240 622 m 318 1104 l 497 1332 l 549 1353 l 657 1201 l 383 1029 l 318 1104 z "},"Ô":{"ha":910,"x_min":50,"x_max":860,"o":"m 204 1024 l 442 1254 l 493 1254 l 732 1022 l 722 1006 l 603 1006 l 467 1086 l 331 1006 l 213 1006 l 204 1024 m 456 -6 q 154 131 264 -6 q 50 479 50 260 q 154 828 50 699 q 456 963 263 963 q 756 828 650 963 q 860 479 860 697 q 756 131 860 261 q 456 -6 649 -6 m 240 476 q 299 238 240 333 q 456 140 357 140 q 611 238 553 140 q 669 476 669 333 q 611 718 669 622 q 456 817 551 817 q 299 718 358 817 q 240 476 240 622 z "},"Õ":{"ha":910,"x_min":50,"x_max":860,"o":"m 615 1224 l 728 1118 q 653 1043 699 1076 q 566 1010 607 1010 q 502 1019 525 1010 q 458 1041 479 1029 q 416 1063 438 1053 q 360 1072 394 1072 q 302 1048 325 1072 q 269 997 279 1024 l 168 1058 l 168 1085 q 214 1157 183 1129 q 350 1213 278 1213 q 514 1154 424 1213 q 542 1143 532 1143 l 615 1224 m 456 -6 q 154 131 264 -6 q 50 479 50 260 q 154 828 50 699 q 456 963 263 963 q 756 828 650 963 q 860 479 860 697 q 756 131 860 261 q 456 -6 649 -6 m 240 476 q 299 238 240 333 q 456 140 357 140 q 611 238 553 140 q 669 476 669 333 q 611 718 669 622 q 456 817 551 817 q 299 718 358 817 q 240 476 240 622 z "},"Ö":{"ha":910,"x_min":50,"x_max":860,"o":"m 456 -6 q 154 131 264 -6 q 50 479 50 260 q 154 828 50 699 q 456 963 263 963 q 756 828 650 963 q 860 479 860 697 q 756 131 860 261 q 456 -6 649 -6 m 240 476 q 299 238 240 333 q 456 140 357 140 q 611 238 553 140 q 669 476 669 333 q 611 718 669 622 q 456 817 551 817 q 299 718 358 817 q 240 476 240 622 m 242 1117 q 269 1185 242 1157 q 337 1213 297 1213 q 404 1185 376 1213 q 432 1117 432 1157 q 404 1049 432 1076 q 337 1022 376 1022 q 269 1049 297 1022 q 242 1117 242 1076 m 489 1117 q 516 1185 489 1157 q 583 1213 543 1213 q 650 1185 624 1213 q 676 1117 676 1157 q 650 1049 676 1076 q 583 1022 624 1022 q 516 1049 543 1022 q 489 1117 489 1076 z "},"×":{"ha":646,"x_min":49,"x_max":597,"o":"m 49 279 l 225 456 l 49 632 l 146 729 l 322 553 l 499 731 l 597 633 l 421 456 l 597 281 l 499 182 l 322 357 l 146 181 l 49 279 z "},"Ø":{"ha":910,"x_min":50,"x_max":860,"o":"m 715 871 q 860 479 860 740 q 756 131 860 261 q 456 -6 649 -6 q 325 14 386 -6 l 279 -87 l 106 -87 l 100 -56 l 174 107 q 50 479 50 236 q 154 828 50 699 q 456 963 263 963 q 560 950 511 963 l 606 1051 l 782 1051 l 782 1018 l 715 871 m 629 683 l 389 154 q 461 140 418 140 q 544 166 504 140 q 611 238 583 192 q 669 465 669 333 q 629 683 669 596 m 299 718 q 285 695 299 718 q 256 610 271 672 q 240 465 240 547 q 265 307 240 382 l 496 811 q 442 817 478 817 q 366 790 406 817 q 299 718 326 764 z "},"Ù":{"ha":931,"x_min":29,"x_max":893,"o":"m 490 140 q 665 349 665 140 l 665 825 l 576 838 l 576 960 l 893 960 l 893 833 l 811 815 l 811 344 q 729 88 811 182 q 490 -6 647 -6 q 203 86 289 -6 q 122 344 122 172 l 122 824 l 29 836 l 29 960 l 403 960 l 403 838 l 304 822 l 304 347 q 345 192 304 243 q 490 140 386 140 m 549 1006 l 294 1206 l 401 1332 l 450 1308 l 606 1063 l 549 1006 z "},"Ú":{"ha":931,"x_min":29,"x_max":893,"o":"m 490 140 q 665 349 665 140 l 665 825 l 576 838 l 576 960 l 893 960 l 893 833 l 811 815 l 811 344 q 729 88 811 182 q 490 -6 647 -6 q 203 86 289 -6 q 122 344 122 172 l 122 824 l 29 836 l 29 960 l 403 960 l 403 838 l 304 822 l 304 347 q 345 192 304 243 q 490 140 386 140 m 343 1104 l 522 1332 l 574 1353 l 682 1201 l 408 1029 l 343 1104 z "},"Û":{"ha":931,"x_min":29,"x_max":893,"o":"m 210 1024 l 447 1254 l 499 1254 l 738 1022 l 728 1006 l 608 1006 l 472 1086 l 336 1006 l 218 1006 l 210 1024 m 490 140 q 665 349 665 140 l 665 825 l 576 838 l 576 960 l 893 960 l 893 833 l 811 815 l 811 344 q 729 88 811 182 q 490 -6 647 -6 q 203 86 289 -6 q 122 344 122 172 l 122 824 l 29 836 l 29 960 l 403 960 l 403 838 l 304 822 l 304 347 q 345 192 304 243 q 490 140 386 140 z "},"Ü":{"ha":931,"x_min":29,"x_max":893,"o":"m 490 140 q 665 349 665 140 l 665 824 l 576 836 l 576 958 l 893 958 l 893 832 l 811 814 l 811 344 q 729 88 811 182 q 490 -6 647 -6 q 203 86 289 -6 q 122 344 122 172 l 122 822 l 29 835 l 29 958 l 403 958 l 403 836 l 304 821 l 304 347 q 345 192 304 243 q 490 140 386 140 m 268 1117 q 296 1185 268 1157 q 363 1213 324 1213 q 431 1185 403 1213 q 458 1117 458 1157 q 431 1049 458 1076 q 363 1022 403 1022 q 296 1049 324 1022 q 268 1117 268 1076 m 515 1117 q 542 1185 515 1157 q 610 1213 569 1213 q 676 1185 650 1213 q 703 1117 703 1157 q 676 1049 703 1076 q 610 1022 650 1022 q 542 1049 569 1022 q 515 1117 515 1076 z "},"Ý":{"ha":810,"x_min":-3,"x_max":808,"o":"m 336 960 l 357 850 l 258 831 l 431 531 l 586 835 l 501 850 l 501 960 l 808 960 l 808 838 l 747 822 l 500 349 l 500 133 l 660 101 l 647 0 l 174 0 l 160 101 l 318 133 l 318 350 l 53 822 l -3 836 l -3 960 l 336 960 m 322 1104 l 501 1332 l 553 1353 l 661 1201 l 388 1029 l 322 1104 z "},"Þ":{"ha":772,"x_min":56,"x_max":757,"o":"m 333 775 l 383 776 q 664 697 565 776 q 757 489 757 621 q 665 282 757 357 q 388 203 568 203 l 361 203 q 333 204 349 203 l 333 138 l 492 121 l 492 0 l 56 0 l 56 124 l 150 142 l 150 824 l 56 833 l 56 960 l 418 960 l 438 831 l 333 814 l 333 775 m 568 489 q 524 586 568 556 q 333 629 468 626 l 333 349 q 558 433 529 349 q 568 489 568 460 z "},"ß":{"ha":781,"x_min":40,"x_max":760,"o":"m 110 738 q 184 945 110 869 q 389 1021 258 1021 q 644 892 585 1021 q 667 780 667 844 q 645 675 667 715 q 599 609 624 635 q 552 567 574 583 q 531 536 531 550 q 536 513 531 522 q 553 494 542 504 q 582 473 564 485 q 632 438 600 461 q 690 387 664 414 q 732 333 717 360 q 760 230 760 288 q 740 130 760 172 q 686 57 721 88 q 503 -6 617 -6 q 394 8 435 -6 q 332 28 354 21 l 403 196 l 481 125 q 569 169 535 125 q 585 222 585 189 q 569 281 585 256 q 529 328 553 307 q 477 369 506 350 q 425 411 449 389 q 369 517 369 464 q 389 598 369 569 q 433 650 408 626 q 476 701 457 674 q 496 776 496 729 q 467 856 496 822 q 399 889 439 889 q 337 876 358 889 q 303 843 315 864 q 278 739 278 804 l 278 0 l 50 0 l 40 100 l 110 115 l 110 738 z "},"à":{"ha":643,"x_min":40,"x_max":619,"o":"m 574 115 q 549 146 549 115 l 549 458 q 474 633 549 574 q 310 682 413 682 q 142 633 218 682 q 42 519 69 588 l 214 444 l 250 547 q 299 551 261 551 q 359 538 338 551 q 381 510 381 525 l 381 400 q 72 282 158 394 q 40 190 40 240 q 53 106 40 140 q 92 47 67 72 q 242 -6 147 -6 q 397 61 331 -6 q 508 -6 431 -6 q 619 40 567 -6 l 594 118 l 574 115 m 381 193 q 342 149 369 169 q 278 128 314 128 q 228 148 243 128 q 213 193 213 168 q 229 235 213 218 q 271 264 246 253 q 381 283 310 279 l 381 193 m 392 707 l 124 875 l 231 1022 l 281 1003 l 456 779 l 392 707 z "},"á":{"ha":643,"x_min":40,"x_max":619,"o":"m 397 61 q 242 -6 331 -6 q 92 47 147 -6 q 40 169 40 97 q 72 282 40 240 q 153 350 104 324 q 381 400 244 397 l 381 510 q 359 538 381 525 q 308 551 338 551 q 250 547 261 551 l 214 444 l 42 519 q 142 633 69 588 q 310 682 218 682 q 528 564 469 682 q 549 458 549 522 l 549 146 q 574 115 549 115 l 594 118 l 619 40 q 508 -6 567 -6 q 397 61 431 -6 m 381 283 q 213 192 213 275 q 228 148 213 168 q 278 128 243 128 q 342 149 314 128 q 381 193 369 169 l 381 283 m 156 779 l 331 1003 l 381 1022 l 488 875 l 219 707 l 156 779 z "},"â":{"ha":643,"x_min":40,"x_max":619,"o":"m 110 751 l 296 972 l 340 972 l 526 750 l 518 735 l 410 735 l 317 807 l 224 735 l 117 735 l 110 751 m 397 61 q 242 -6 331 -6 q 92 47 147 -6 q 40 169 40 97 q 72 282 40 240 q 153 350 104 324 q 381 400 244 397 l 381 510 q 359 538 381 525 q 308 551 338 551 q 250 547 261 551 l 214 444 l 42 519 q 142 633 69 588 q 310 682 218 682 q 528 564 469 682 q 549 458 549 522 l 549 146 q 574 115 549 115 l 594 118 l 619 40 q 508 -6 567 -6 q 397 61 431 -6 m 381 283 q 213 192 213 275 q 228 148 213 168 q 278 128 243 128 q 342 149 314 128 q 381 193 369 169 l 381 283 z "},"ã":{"ha":643,"x_min":40,"x_max":619,"o":"m 539 871 q 399 769 468 769 q 329 789 364 769 q 276 817 294 808 q 228 826 257 826 q 178 805 199 826 q 151 760 158 783 l 63 818 l 64 844 q 163 946 92 914 q 223 958 190 958 q 281 949 256 958 q 326 930 306 940 q 363 909 347 919 q 386 897 378 899 l 436 968 l 539 871 m 397 61 q 242 -6 331 -6 q 92 47 147 -6 q 40 169 40 97 q 72 282 40 240 q 153 350 104 324 q 381 400 244 397 l 381 510 q 359 538 381 525 q 308 551 338 551 q 250 547 261 551 l 214 444 l 42 519 q 142 633 69 588 q 310 682 218 682 q 528 564 469 682 q 549 458 549 522 l 549 146 q 574 115 549 115 l 594 118 l 619 40 q 508 -6 567 -6 q 397 61 431 -6 m 381 283 q 213 192 213 275 q 228 148 213 168 q 278 128 243 128 q 342 149 314 128 q 381 193 369 169 l 381 283 z "},"ä":{"ha":643,"x_min":40,"x_max":619,"o":"m 97 881 q 122 942 97 917 q 183 967 147 967 q 244 942 219 967 q 269 881 269 917 q 244 819 269 844 q 183 794 219 794 q 122 819 147 794 q 97 881 97 844 m 321 881 q 346 942 321 917 q 407 967 371 967 q 468 942 443 967 q 493 881 493 917 q 468 819 493 844 q 407 794 443 794 q 346 819 371 794 q 321 881 321 844 m 397 61 q 242 -6 331 -6 q 92 47 147 -6 q 40 169 40 97 q 72 282 40 240 q 153 350 104 324 q 381 400 244 397 l 381 510 q 359 538 381 525 q 308 551 338 551 q 250 547 261 551 l 214 444 l 42 519 q 142 633 69 588 q 310 682 218 682 q 528 564 469 682 q 549 458 549 522 l 549 146 q 574 115 549 115 l 594 118 l 619 40 q 508 -6 567 -6 q 397 61 431 -6 m 381 283 q 213 192 213 275 q 228 148 213 168 q 278 128 243 128 q 342 149 314 128 q 381 193 369 169 l 381 283 z "},"å":{"ha":643,"x_min":40,"x_max":619,"o":"m 164 875 q 175 934 164 907 q 206 981 186 961 q 311 1024 249 1024 q 416 981 374 1024 q 458 876 458 939 q 416 772 458 814 q 311 729 374 729 q 206 772 249 729 q 164 875 164 814 m 251 876 q 267 833 251 849 q 311 817 283 817 q 355 833 339 817 q 371 876 371 849 q 355 920 371 904 q 311 936 339 936 q 267 920 283 936 q 251 876 251 904 m 397 61 q 242 -6 331 -6 q 92 47 147 -6 q 40 169 40 97 q 72 282 40 240 q 153 350 104 324 q 381 400 244 397 l 381 510 q 359 538 381 525 q 308 551 338 551 q 250 547 261 551 l 214 444 l 42 519 q 142 633 69 588 q 310 682 218 682 q 528 564 469 682 q 549 458 549 522 l 549 146 q 574 115 549 115 l 594 118 l 619 40 q 508 -6 567 -6 q 397 61 431 -6 m 381 283 q 213 192 213 275 q 228 148 213 168 q 278 128 243 128 q 342 149 314 128 q 381 193 369 169 l 381 283 z "},"æ":{"ha":969,"x_min":40,"x_max":926,"o":"m 494 614 q 693 682 575 682 q 853 631 785 682 q 926 492 926 575 q 836 319 926 374 q 629 274 761 274 q 592 274 629 274 q 558 275 574 274 q 605 169 567 213 q 718 126 643 126 q 861 174 788 126 q 893 199 881 186 l 925 78 q 779 3 889 31 q 699 -6 742 -6 q 451 104 538 -6 q 360 26 415 58 q 249 -6 304 -6 q 156 8 193 -6 q 92 47 118 22 q 40 169 40 97 q 72 282 40 240 q 153 350 104 324 q 381 400 244 397 l 381 510 q 359 538 381 525 q 308 551 338 551 q 250 547 261 551 l 214 444 l 42 519 q 142 633 69 588 q 310 682 218 682 q 494 614 429 682 m 560 392 q 581 390 567 390 l 606 390 q 744 440 706 390 q 758 488 758 458 q 741 535 758 518 q 697 551 724 551 q 647 538 671 551 q 606 503 624 525 q 560 392 565 458 m 381 283 q 213 192 213 275 q 228 148 213 168 q 279 128 243 128 q 343 149 315 128 q 381 194 371 171 l 381 283 z "},"ç":{"ha":599,"x_min":43,"x_max":578,"o":"m 371 -53 q 476 -174 476 -76 q 431 -269 476 -231 q 300 -307 385 -307 q 174 -282 233 -307 l 221 -179 l 297 -235 q 358 -208 335 -235 q 369 -176 369 -197 q 272 -108 369 -108 l 256 -86 l 285 0 q 64 192 119 35 q 43 338 43 249 q 71 497 43 428 q 142 607 99 565 q 346 682 221 682 q 519 628 450 682 q 578 558 553 600 l 410 468 l 350 551 q 251 492 286 551 q 215 331 215 432 q 303 143 215 190 q 369 126 333 126 q 431 134 406 126 q 476 152 456 142 q 510 174 496 163 q 532 193 524 186 q 540 167 535 183 q 551 132 546 150 q 561 97 557 114 q 568 72 565 81 q 388 -4 503 7 l 371 -53 z "},"è":{"ha":631,"x_min":42,"x_max":589,"o":"m 344 682 q 240 662 296 682 q 142 599 185 642 q 42 332 42 501 q 140 78 42 171 q 357 -6 229 -6 q 503 24 433 -6 q 583 78 560 47 l 551 199 q 488 151 526 175 q 396 126 449 126 q 313 138 343 126 q 263 169 282 150 q 217 275 225 207 q 250 274 232 274 l 288 274 q 499 325 418 274 q 589 492 589 382 q 514 636 589 583 q 344 682 447 682 m 410 707 l 142 875 l 249 1022 l 299 1003 l 474 779 l 410 707 m 218 392 q 264 503 224 458 q 354 550 304 550 q 400 534 382 550 q 418 488 418 518 q 404 440 418 458 q 368 411 390 422 q 264 390 326 390 l 239 390 q 218 392 225 390 z "},"é":{"ha":631,"x_min":42,"x_max":589,"o":"m 217 275 q 385 126 236 126 q 488 151 449 126 q 551 199 526 175 l 583 78 q 436 3 544 26 q 349 -6 400 -6 q 241 15 297 -6 q 140 78 185 36 q 42 332 42 171 q 142 599 42 501 q 351 682 225 682 q 514 636 447 682 q 589 492 589 583 q 499 325 589 382 q 288 274 418 274 l 250 274 q 217 275 232 274 m 188 779 l 363 1003 l 413 1022 l 519 875 l 251 707 l 188 779 m 218 392 q 239 390 225 390 l 264 390 q 404 440 365 390 q 418 488 418 458 q 400 534 418 518 q 356 550 382 550 q 306 538 329 550 q 264 503 282 525 q 218 392 224 458 z "},"ê":{"ha":631,"x_min":42,"x_max":589,"o":"m 217 275 q 385 126 236 126 q 488 151 449 126 q 551 199 526 175 l 583 78 q 436 3 544 26 q 349 -6 400 -6 q 241 15 297 -6 q 140 78 185 36 q 42 332 42 171 q 142 599 42 501 q 351 682 225 682 q 514 636 447 682 q 589 492 589 583 q 499 325 589 382 q 288 274 418 274 l 250 274 q 217 275 232 274 m 143 751 l 328 972 l 374 972 l 560 750 l 551 735 l 443 735 l 350 807 l 257 735 l 150 735 l 143 751 m 218 392 q 239 390 225 390 l 264 390 q 404 440 365 390 q 418 488 418 458 q 400 534 418 518 q 356 550 382 550 q 306 538 329 550 q 264 503 282 525 q 218 392 224 458 z "},"ë":{"ha":631,"x_min":42,"x_max":589,"o":"m 217 275 q 385 126 236 126 q 488 151 449 126 q 551 199 526 175 l 583 78 q 436 3 544 26 q 349 -6 400 -6 q 241 15 297 -6 q 140 78 185 36 q 42 332 42 171 q 142 599 42 501 q 351 682 225 682 q 514 636 447 682 q 589 492 589 583 q 499 325 589 382 q 288 274 418 274 l 250 274 q 217 275 232 274 m 365 881 q 390 942 365 917 q 451 967 415 967 q 513 942 488 967 q 538 881 538 917 q 513 819 538 844 q 451 794 488 794 q 390 819 415 794 q 365 881 365 844 m 142 881 q 167 942 142 917 q 228 967 192 967 q 289 942 264 967 q 314 881 314 917 q 289 819 314 844 q 228 794 264 794 q 167 819 192 794 q 142 881 142 844 m 218 392 q 239 390 225 390 l 264 390 q 404 440 365 390 q 418 488 418 458 q 400 534 418 518 q 356 550 382 550 q 306 538 329 550 q 264 503 282 525 q 218 392 224 458 z "},"ì":{"ha":400,"x_min":31,"x_max":367,"o":"m 243 683 q 36 647 243 683 l 51 553 l 122 553 l 122 107 l 44 89 l 60 0 l 367 0 l 367 89 l 290 104 l 290 633 l 243 683 m 299 707 l 31 875 l 138 1022 l 188 1003 l 363 779 l 299 707 z "},"í":{"ha":400,"x_min":36,"x_max":368,"o":"m 36 647 l 243 683 l 290 633 l 290 104 l 367 89 l 367 0 l 60 0 l 44 89 l 122 107 l 122 553 l 51 553 l 36 647 m 36 779 l 211 1003 l 261 1022 l 368 875 l 100 707 l 36 779 z "},"î":{"ha":400,"x_min":-6,"x_max":411,"o":"m -6 751 l 179 972 l 225 972 l 411 750 l 403 735 l 294 735 l 201 807 l 108 735 l 1 735 l -6 751 m 36 647 l 243 683 l 290 633 l 290 104 l 367 89 l 367 0 l 60 0 l 44 89 l 122 107 l 122 553 l 51 553 l 36 647 z "},"ï":{"ha":400,"x_min":-6,"x_max":376,"o":"m -6 881 q 19 942 -6 917 q 81 967 44 967 q 142 942 117 967 q 167 881 167 917 q 142 819 167 844 q 81 794 117 794 q 19 819 44 794 q -6 881 -6 844 m 204 881 q 229 942 204 917 q 290 967 254 967 q 351 942 326 967 q 376 881 376 917 q 351 819 376 844 q 290 794 326 794 q 229 819 254 794 q 204 881 204 844 m 36 647 l 243 683 l 290 633 l 290 104 l 367 89 l 367 0 l 60 0 l 44 89 l 122 107 l 122 553 l 51 553 l 36 647 z "},"ð":{"ha":757,"x_min":40,"x_max":708,"o":"m 282 808 q 185 854 247 828 l 257 1022 q 435 929 360 983 l 550 1021 l 642 879 l 554 826 q 708 453 708 660 q 643 161 708 288 q 483 17 589 60 q 355 -6 428 -6 q 224 19 282 -6 q 125 86 165 44 q 40 303 40 176 q 119 540 40 447 q 328 632 199 632 q 513 567 444 632 q 393 731 479 660 l 236 638 l 185 731 l 282 808 m 365 140 q 529 353 510 140 q 468 463 519 425 q 376 494 425 494 q 297 478 326 494 q 249 436 267 463 q 215 313 215 389 q 256 194 215 244 q 365 140 301 140 z "},"ñ":{"ha":771,"x_min":36,"x_max":742,"o":"m 646 872 q 507 771 575 771 q 438 790 474 771 q 383 819 401 810 q 335 828 364 828 q 285 806 306 828 q 258 761 265 785 l 169 819 l 171 846 q 269 947 199 915 q 331 960 299 960 q 388 951 363 960 q 433 931 413 942 q 469 910 454 921 q 493 899 485 900 l 544 969 l 646 872 m 36 647 l 242 683 l 290 632 q 361 667 317 651 q 450 682 406 682 q 533 671 494 682 q 601 638 572 660 q 665 499 665 589 l 665 101 l 742 89 l 740 0 l 428 0 l 428 89 l 497 104 l 497 460 q 411 546 497 546 q 306 508 354 546 q 290 494 294 500 l 290 104 l 369 88 l 368 0 l 60 0 l 44 89 l 122 107 l 122 553 l 51 553 l 36 647 z "},"ò":{"ha":693,"x_min":40,"x_max":653,"o":"m 40 342 q 136 83 40 181 q 346 -6 222 -6 q 557 83 471 -6 q 653 342 653 181 q 557 596 653 500 q 346 682 471 682 q 136 596 222 682 q 40 342 40 500 m 213 333 q 294 539 213 499 q 346 551 318 551 q 469 433 440 551 q 481 333 481 392 q 397 136 481 171 q 346 125 374 125 q 222 236 251 125 q 213 333 213 275 m 431 707 l 163 875 l 269 1022 l 319 1003 l 494 779 l 431 707 z "},"ó":{"ha":693,"x_min":40,"x_max":653,"o":"m 40 342 q 136 596 40 500 q 346 682 222 682 q 557 596 471 682 q 653 342 653 500 q 557 83 653 181 q 346 -6 471 -6 q 136 83 222 -6 q 40 342 40 181 m 213 333 q 294 136 213 172 q 346 125 318 125 q 469 236 442 125 q 481 333 481 275 q 397 539 481 500 q 346 551 374 551 q 222 433 253 551 q 213 333 213 392 m 199 779 l 374 1003 l 424 1022 l 531 875 l 263 707 l 199 779 z "},"ô":{"ha":693,"x_min":40,"x_max":653,"o":"m 133 751 l 318 972 l 364 972 l 550 750 l 542 735 l 433 735 l 340 807 l 247 735 l 140 735 l 133 751 m 40 342 q 136 596 40 500 q 346 682 222 682 q 557 596 471 682 q 653 342 653 500 q 557 83 653 181 q 346 -6 471 -6 q 136 83 222 -6 q 40 342 40 181 m 213 333 q 294 136 213 172 q 346 125 318 125 q 469 236 442 125 q 481 333 481 275 q 397 539 481 500 q 346 551 374 551 q 222 433 253 551 q 213 333 213 392 z "},"õ":{"ha":693,"x_min":40,"x_max":653,"o":"m 606 871 q 465 769 535 769 q 396 789 431 769 q 342 817 361 808 q 294 826 324 826 q 245 805 265 826 q 218 760 225 783 l 129 818 l 131 844 q 229 946 158 914 q 290 958 257 958 q 347 949 322 958 q 393 930 372 940 q 429 909 414 919 q 453 897 444 899 l 503 968 l 606 871 m 40 342 q 136 596 40 500 q 346 682 222 682 q 557 596 471 682 q 653 342 653 500 q 557 83 653 181 q 346 -6 471 -6 q 136 83 222 -6 q 40 342 40 181 m 213 333 q 294 136 213 172 q 346 125 318 125 q 469 236 442 125 q 481 333 481 275 q 397 539 481 500 q 346 551 374 551 q 222 433 253 551 q 213 333 213 392 z "},"ö":{"ha":693,"x_min":40,"x_max":653,"o":"m 146 881 q 171 942 146 917 q 232 967 196 967 q 293 942 268 967 q 318 881 318 917 q 293 819 318 844 q 232 794 268 794 q 171 819 196 794 q 146 881 146 844 m 371 881 q 396 942 371 917 q 457 967 421 967 q 518 942 493 967 q 543 881 543 917 q 518 819 543 844 q 457 794 493 794 q 396 819 421 794 q 371 881 371 844 m 40 342 q 136 596 40 500 q 346 682 222 682 q 557 596 471 682 q 653 342 653 500 q 557 83 653 181 q 346 -6 471 -6 q 136 83 222 -6 q 40 342 40 181 m 213 333 q 294 136 213 172 q 346 125 318 125 q 469 236 442 125 q 481 333 481 275 q 397 539 481 500 q 346 551 374 551 q 222 433 253 551 q 213 333 213 392 z "},"÷":{"ha":582,"x_min":44,"x_max":538,"o":"m 189 117 q 216 182 189 156 q 282 208 243 208 q 347 182 321 208 q 374 117 374 156 q 347 51 374 78 q 282 24 321 24 q 216 51 243 24 q 189 117 189 78 m 282 469 q 216 497 243 469 q 189 563 189 525 q 216 628 189 601 q 282 654 243 654 q 347 628 321 654 q 374 563 374 601 q 347 497 374 525 q 282 469 321 469 m 44 408 l 538 408 l 538 269 l 44 269 l 44 408 z "},"ø":{"ha":693,"x_min":40,"x_max":653,"o":"m 149 71 q 40 342 40 169 q 136 596 40 500 q 346 682 222 682 q 396 678 371 682 l 451 813 l 615 813 l 614 794 l 539 611 q 653 342 653 517 q 557 83 653 181 q 346 -6 471 -6 q 290 0 318 -6 l 232 -146 l 72 -146 l 68 -128 l 149 71 m 469 236 q 481 334 481 275 q 468 438 481 393 l 346 125 q 469 236 442 125 m 222 433 q 213 337 213 392 q 221 247 213 282 l 344 551 q 222 433 253 551 z "},"ù":{"ha":749,"x_min":18,"x_max":715,"o":"m 669 115 q 647 146 647 115 l 647 631 l 599 683 l 400 646 l 417 553 l 479 557 l 479 200 q 436 150 468 172 q 364 128 404 128 q 298 154 324 128 q 272 235 272 181 l 272 631 l 224 683 l 18 646 l 33 553 l 104 553 l 104 203 q 163 45 104 96 q 319 -6 221 -6 q 414 10 365 -6 q 494 61 463 26 q 607 -6 525 -6 q 678 13 650 -6 q 715 40 707 31 l 689 118 l 669 115 m 422 707 l 154 875 l 261 1022 l 311 1003 l 486 779 l 422 707 z "},"ú":{"ha":749,"x_min":18,"x_max":715,"o":"m 607 -6 q 494 61 525 -6 q 414 10 463 26 q 319 -6 365 -6 q 163 45 221 -6 q 104 203 104 96 l 104 553 l 33 553 l 18 646 l 224 683 l 272 631 l 272 235 q 298 154 272 181 q 364 128 324 128 q 436 150 404 128 q 479 200 468 172 l 479 557 l 417 553 l 400 646 l 599 683 l 647 631 l 647 146 q 669 115 647 115 l 689 118 l 715 40 q 678 13 707 31 q 607 -6 650 -6 m 190 779 l 365 1003 l 415 1022 l 522 875 l 254 707 l 190 779 z "},"û":{"ha":749,"x_min":18,"x_max":715,"o":"m 156 751 l 340 972 l 386 972 l 572 750 l 564 735 l 456 735 l 363 807 l 269 735 l 163 735 l 156 751 m 607 -6 q 494 61 525 -6 q 414 10 463 26 q 319 -6 365 -6 q 163 45 221 -6 q 104 203 104 96 l 104 553 l 33 553 l 18 646 l 224 683 l 272 631 l 272 235 q 298 154 272 181 q 364 128 324 128 q 436 150 404 128 q 479 200 468 172 l 479 557 l 417 553 l 400 646 l 599 683 l 647 631 l 647 146 q 669 115 647 115 l 689 118 l 715 40 q 678 13 707 31 q 607 -6 650 -6 z "},"ü":{"ha":749,"x_min":18,"x_max":715,"o":"m 168 881 q 193 942 168 917 q 254 967 218 967 q 315 942 290 967 q 340 881 340 917 q 315 819 340 844 q 254 794 290 794 q 193 819 218 794 q 168 881 168 844 m 393 881 q 418 942 393 917 q 479 967 443 967 q 540 942 515 967 q 565 881 565 917 q 540 819 565 844 q 479 794 515 794 q 418 819 443 794 q 393 881 393 844 m 607 -6 q 494 61 525 -6 q 414 10 463 26 q 319 -6 365 -6 q 163 45 221 -6 q 104 203 104 96 l 104 553 l 33 553 l 18 646 l 224 683 l 272 631 l 272 235 q 298 154 272 181 q 364 128 324 128 q 436 150 404 128 q 479 200 468 172 l 479 557 l 417 553 l 400 646 l 599 683 l 647 631 l 647 146 q 669 115 647 115 l 689 118 l 715 40 q 678 13 707 31 q 607 -6 650 -6 z "},"ý":{"ha":693,"x_min":0,"x_max":689,"o":"m 689 632 q 592 357 667 571 q 492 72 517 143 q 445 -61 467 0 q 407 -167 424 -122 q 376 -249 390 -212 q 338 -316 363 -286 q 289 -361 314 -346 q 208 -381 256 -381 q 86 -349 147 -381 q 40 -317 61 -336 l 115 -200 q 197 -250 175 -250 q 235 -232 219 -250 q 268 -168 251 -214 l 299 -85 l 64 565 l 11 565 l 0 665 l 208 682 l 389 165 q 441 309 415 239 q 490 442 467 379 q 533 565 513 504 l 469 565 l 458 667 l 661 682 l 689 632 m 171 779 l 346 1003 l 396 1022 l 503 875 l 235 707 l 171 779 z "},"þ":{"ha":696,"x_min":4,"x_max":653,"o":"m 258 656 q 376 682 311 682 q 492 659 442 682 q 578 593 542 636 q 653 349 653 504 q 556 69 653 160 q 343 -6 474 -6 q 256 4 301 -6 l 258 -10 l 258 -253 l 424 -289 l 424 -379 l 29 -379 l 21 -292 l 92 -271 l 92 900 l 19 900 l 4 994 l 211 1022 l 258 974 l 258 656 m 258 143 q 343 125 286 125 q 440 177 400 125 q 481 340 481 229 q 442 501 481 450 q 349 551 404 551 q 258 526 293 551 l 258 143 z "},"ÿ":{"ha":693,"x_min":0,"x_max":689,"o":"m 689 632 q 592 357 667 571 q 492 72 517 143 q 445 -61 467 0 q 407 -167 424 -122 q 376 -249 390 -212 q 338 -316 363 -286 q 289 -361 314 -346 q 208 -381 256 -381 q 86 -349 147 -381 q 40 -317 61 -336 l 115 -200 q 197 -250 175 -250 q 235 -232 219 -250 q 268 -168 251 -214 l 299 -85 l 64 565 l 11 565 l 0 665 l 208 682 l 389 165 q 441 309 415 239 q 490 442 467 379 q 533 565 513 504 l 469 565 l 458 667 l 661 682 l 689 632 m 153 881 q 178 942 153 917 q 239 967 203 967 q 300 942 275 967 q 325 881 325 917 q 300 819 325 844 q 239 794 275 794 q 178 819 203 794 q 153 881 153 844 m 376 881 q 401 942 376 917 q 463 967 426 967 q 524 942 499 967 q 549 881 549 917 q 524 819 549 844 q 463 794 499 794 q 401 819 426 794 q 376 881 376 844 z "},"Œ":{"ha":1221,"x_min":50,"x_max":1172,"o":"m 524 0 l 456 -1 q 154 133 263 -1 q 50 479 50 261 q 163 826 50 690 q 442 960 272 960 l 1140 960 l 1167 676 l 1058 676 l 1001 814 l 776 814 l 776 567 l 988 567 l 988 421 l 776 421 l 776 146 l 1011 146 l 1063 283 l 1172 283 l 1143 0 l 524 0 m 594 781 q 492 814 561 814 q 378 788 424 814 q 301 717 332 763 q 240 476 240 625 q 372 169 240 242 q 464 144 418 144 q 594 179 553 144 l 594 781 z "},"œ":{"ha":1069,"x_min":40,"x_max":1028,"o":"m 567 585 q 790 682 656 682 q 953 636 886 682 q 1028 492 1028 583 q 938 325 1028 382 q 726 274 857 274 l 689 274 q 656 275 671 274 q 824 126 675 126 q 926 151 888 126 q 990 199 965 175 l 1022 78 q 875 3 983 26 q 796 -6 839 -6 q 564 92 656 -6 q 346 -6 475 -6 q 136 83 222 -6 q 40 342 40 181 q 136 596 40 500 q 350 682 222 682 q 567 585 478 682 m 213 333 q 294 136 213 172 q 346 125 318 125 q 469 236 442 125 q 481 333 481 275 q 397 539 481 500 q 346 551 374 551 q 222 433 253 551 q 213 333 213 392 m 657 392 q 678 390 664 390 l 703 390 q 843 440 804 390 q 857 488 857 458 q 839 534 857 518 q 794 550 821 550 q 744 538 768 550 q 703 503 721 525 q 657 392 663 458 z "},"–":{"ha":661,"x_min":74,"x_max":589,"o":"m 74 550 l 589 550 l 589 418 l 74 418 l 74 550 z "},"—":{"ha":869,"x_min":74,"x_max":797,"o":"m 74 550 l 797 550 l 797 418 l 74 418 l 74 550 z "},"‘":{"ha":304,"x_min":51,"x_max":265,"o":"m 257 968 l 208 790 l 265 624 l 85 558 q 59 658 67 603 q 51 746 51 713 q 58 819 51 779 q 76 897 65 860 q 129 1021 97 965 l 251 982 l 257 968 z "},"’":{"ha":306,"x_min":33,"x_max":269,"o":"m 256 1025 q 269 907 269 969 q 258 798 269 844 q 231 708 247 751 q 154 571 199 628 l 38 625 l 33 640 l 104 810 l 68 983 l 256 1025 z "},"‚":{"ha":329,"x_min":31,"x_max":267,"o":"m 238 283 q 267 114 267 167 q 256 15 267 61 q 228 -75 244 -32 q 151 -212 196 -156 l 35 -158 l 31 -143 l 101 26 l 50 242 l 238 283 z "},"“":{"ha":557,"x_min":51,"x_max":517,"o":"m 517 954 l 453 781 l 514 568 l 329 518 q 321 547 326 524 q 308 600 315 571 q 292 711 292 669 q 301 798 292 753 q 325 883 310 843 q 393 1018 353 963 l 511 968 l 517 954 m 278 957 l 213 760 l 276 531 l 92 481 q 65 587 79 506 q 51 700 51 668 q 61 781 51 732 q 86 875 71 829 q 153 1021 114 963 l 272 972 l 278 957 z "},"”":{"ha":551,"x_min":35,"x_max":513,"o":"m 247 1000 q 271 856 271 906 q 260 759 271 806 q 232 669 249 713 q 156 532 200 589 l 39 586 l 35 601 l 106 771 l 60 958 l 247 1000 m 486 1028 q 513 869 513 922 q 501 766 513 817 q 472 669 490 715 q 394 518 438 574 l 278 572 l 274 588 l 347 782 l 299 986 l 486 1028 z "},"„":{"ha":567,"x_min":26,"x_max":504,"o":"m 233 283 q 263 114 263 167 q 251 15 263 61 q 224 -75 240 -32 q 147 -212 192 -156 l 31 -158 l 26 -143 l 97 26 l 46 242 l 233 283 m 265 -157 l 339 38 l 285 269 l 472 311 q 495 198 486 257 q 504 106 504 139 q 493 22 504 72 q 464 -75 482 -29 q 386 -226 429 -171 l 269 -172 l 265 -157 z "},"•":{"ha":379,"x_min":49,"x_max":331,"o":"m 49 532 q 89 632 49 589 q 189 674 129 674 q 289 632 247 674 q 331 532 331 590 q 289 433 331 472 q 189 392 246 392 q 90 433 131 392 q 49 532 49 474 z "},"‹":{"ha":454,"x_min":3,"x_max":375,"o":"m 3 436 l 368 764 l 375 761 l 375 579 l 210 417 l 375 256 l 375 74 l 367 69 l 3 400 l 3 436 z "},"›":{"ha":454,"x_min":79,"x_max":451,"o":"m 451 400 l 88 69 l 79 74 l 79 256 l 244 417 l 79 579 l 79 761 l 86 764 l 451 436 l 451 400 z "},"€":{"ha":861,"x_min":43,"x_max":819,"o":"m 819 90 q 556 -6 710 -6 q 158 285 239 -6 l 43 285 l 43 422 l 138 422 q 136 446 136 433 l 136 486 l 43 486 l 43 625 l 151 625 q 294 875 186 785 q 540 960 396 960 q 775 926 661 960 q 803 682 796 764 l 690 682 l 618 806 q 594 810 607 807 q 554 814 581 814 q 339 625 382 814 l 675 625 l 675 483 l 324 483 q 326 422 324 453 l 675 422 l 675 285 l 354 285 q 557 140 407 140 q 683 166 628 140 q 768 217 739 192 l 819 90 z "}}}
